<svg id="undraw_winners_ao2o_1_" data-name="undraw_winners_ao2o (1)" xmlns="http://www.w3.org/2000/svg" xmlns:xlink="http://www.w3.org/1999/xlink" width="260" height="182.503" viewBox="0 0 260 182.503">
  <defs>
    <linearGradient id="linear-gradient" x1="0.5" y1="1" x2="0.5" gradientUnits="objectBoundingBox">
      <stop offset="0" stop-color="gray" stop-opacity="0.251"/>
      <stop offset="0.54" stop-color="gray" stop-opacity="0.122"/>
      <stop offset="1" stop-color="gray" stop-opacity="0.102"/>
    </linearGradient>
    <linearGradient id="linear-gradient-2" x1="0" y1="0.5" x2="1" y2="0.5" xlink:href="#linear-gradient"/>
  </defs>
  <path id="Path_261" data-name="Path 261" d="M164.118,166.165c5.02-.352,11.25-4.545,16.093-6.4q8.6-3.284,17.265-6.319a635.76,635.76,0,0,1,60.989-18.014q2.876-.7,5.761-1.359a49.239,49.239,0,0,0-13.462-19.907q.224-2.618.227-5.253c0-27.731-18-50.212-40.209-50.212a33.979,33.979,0,0,0-19.514,6.308A93.03,93.03,0,0,0,132.58,44.57c-31.9,0-59.9,15.561-75.771,38.992l74.576,15.513,45.739,9.51c-52.143,1.916-104.447,3.821-156.44-.677-14.154,16.863-16.64,43.7-5.934,64.055h0c0,1,.034,2,.1,2.987,1.324.467,2.6.92,3.751,1.217Q46.223,183.353,74.2,188.2c-13.746,10.436-30.486,11.913-46.343,16.333a41.374,41.374,0,0,0,29.6,12.587H228.544c18.526,0,33.542-15.879,33.542-35.471h0a58.218,58.218,0,0,0,5.452-18.43C233.258,167.289,198.551,163.751,164.118,166.165Z" transform="translate(-7.826 -34.612)" fill="#2b1c81" opacity="0.1"/>
  <path id="Path_262" data-name="Path 262" d="M267.826,154.87c.037-16.385-6.406-31.768-17.272-41.236q.222-2.616.227-5.25c0-27.731-18.016-50.2-40.226-50.2a34.021,34.021,0,0,0-19.525,6.3,93.075,93.075,0,0,0-58.715-20.447c-36.531,0-67.976,20.405-81.921,49.666-.775-.056-1.555-.087-2.341-.087C25.84,93.618,7.826,116.1,7.826,143.83a59.244,59.244,0,0,0,6.618,27.6h0c0,24.951,19.134,45.177,42.726,45.177H228.336c18.531,0,33.554-15.882,33.554-35.473h0a59.536,59.536,0,0,0,5.936-26.262Z" transform="translate(-7.826 -34.612)" fill="#2b1c81" opacity="0.1"/>
  <path id="Path_263" data-name="Path 263" d="M269.164,124.107a3.116,3.116,0,0,0-1.365-.6c-.523-.12-1.057-.2-1.589-.28l-6.887-.993a8.112,8.112,0,0,0-2.109-.112,2.677,2.677,0,0,0-1.835.951,1.43,1.43,0,0,0-.319.9,2.361,2.361,0,0,0,.313.929,3.1,3.1,0,0,1,.171.411,9.4,9.4,0,0,0,.246.937.8.8,0,0,0,.117.185.3.3,0,0,1,0,.048c-.076.386.168.789.059,1.161-.1.319-.406.512-.6.778a1.169,1.169,0,0,0-.028,1.289c.21.324.59.545.7.917.143.49-.243.962-.587,1.34a20.768,20.768,0,0,0-1.751,2.207,1.368,1.368,0,0,0-.28.657c-.031.487.436.915.355,1.4-.064.38-.436.613-.758.839a4.717,4.717,0,0,0-2.238,3.466,12.14,12.14,0,0,0-2.708-6.154,4.4,4.4,0,0,1-1-1.575c-.062-.243-.073-.5-.157-.738-.28-.741-1.169-1.06-1.558-1.743-.28-.481-.28-1.1-.627-1.522s-.892-.517-1.192-.926a5.92,5.92,0,0,1-.38-.862,1.883,1.883,0,0,0-.517-.621,1.507,1.507,0,0,0-.129-.092.445.445,0,0,0,.148-.33c0-.327-.324-.543-.607-.7-.364-.207-.719-.431-1.066-.663a2.492,2.492,0,0,0,.954-.78,2.565,2.565,0,0,0,.364-1.678,2.118,2.118,0,0,0-.5-1.284c-.176-.187-.4-.322-.582-.5a4.082,4.082,0,0,1-.839-1.8,3.654,3.654,0,0,0-1.441-2.165c-.369-.215-.8-.316-1.161-.543a1.013,1.013,0,0,1-.537-1.066c.084-.28.344-.473.52-.71a1.415,1.415,0,0,0-.355-1.958c-.207-.131-.462-.246-.5-.487a.889.889,0,0,1-.649-.688,2.652,2.652,0,0,1,0-1q.109-.78.215-1.555a1.013,1.013,0,0,0,.778,0,6.846,6.846,0,0,0,.839,1.1,10.956,10.956,0,0,1,1.958,3.4,2.046,2.046,0,0,0,.736,1.186c.143.081.3.123.445.21a1.661,1.661,0,0,1,.436.448c.336.445.671.887,1,1.331l.017.067a.391.391,0,0,0,.045.112.372.372,0,0,0,.241.123,4.077,4.077,0,0,0,3.077-.106c.806-.5,1.158-1.5,1.841-2.165.484-.473,1.169-.839,1.306-1.5a4.95,4.95,0,0,1-.481-.176c.14-.14.28-.3.47-.487a5.923,5.923,0,0,0,.744-.887,5.715,5.715,0,0,0,.559-1.253q.808-2.3,1.622-4.612c.257-.727.515-1.46.839-2.168.336-.766.733-1.5,1.1-2.255a29.928,29.928,0,0,0,2.176-6.126,2.238,2.238,0,0,0,.087-.892,2.353,2.353,0,0,0-.794-1.208,5.83,5.83,0,0,0-1.192-.987,1.958,1.958,0,0,0-1.494-.241,2.158,2.158,0,0,0-1.331,1.678,17.606,17.606,0,0,0-.173,2.238c-.1,1.077-.47,2.117-.559,3.2-.048.624,0,1.256-.076,1.88a6.859,6.859,0,0,1-.839,2.316,14.993,14.993,0,0,1-3.617,4.459c-.171.143-.347.28-.515.434a2.671,2.671,0,0,1,.036-.364,2.193,2.193,0,0,0-.355.126,1.066,1.066,0,0,0-.042-.42c-.224-.669-1.22-.839-1.4-1.519a3.109,3.109,0,0,1-.048-.509,12.955,12.955,0,0,0-.6-1.678,7.167,7.167,0,0,0-.28-1.614,4.511,4.511,0,0,0-.744-.839,3.292,3.292,0,0,1-.708-1.334c-.036-.137-.07-.28-.109-.417a1.908,1.908,0,0,0-.1-.92c-.255-.632-.912-1.038-1.15-1.678-.185-.5-.1-1.119-.453-1.5a1.637,1.637,0,0,0-.663-.4,14.749,14.749,0,0,0-3.992-.943,3.4,3.4,0,0,1-2.159-.649c-.641-.627-.671-1.754-1.421-2.238a1.7,1.7,0,0,0-2.106.49,2.664,2.664,0,0,0-.213.28,2.994,2.994,0,0,1-.059-1.147c0-.1.02-.193.028-.28a5.594,5.594,0,0,0,3.032-2.394v.017l.034.087c.081.2.21.4.4.422h0a.559.559,0,0,0,.347-.126,2.872,2.872,0,0,0,.464-.4q.106-.117.2-.243a3.169,3.169,0,0,0,.33-.559,3.325,3.325,0,0,0,.28-.937c.05-.324.056-.657.112-.982a6.044,6.044,0,0,1,.2-.741c.028-.081.056-.162.081-.243s.062-.19.09-.28a6.481,6.481,0,0,0,.28-1.773v-.3a2.951,2.951,0,0,0-.94-2.084c-.481-.394-1.119-.559-1.471-1.094a5.206,5.206,0,0,1-.414-1.239,2.8,2.8,0,0,0-2.2-1.978,2.448,2.448,0,0,0-1.74.478h0l-.039.031h0a2.8,2.8,0,0,0-.694.772,2.307,2.307,0,0,1-.985-.559c-.28-.26-.5-.587-.778-.839a2,2,0,0,0-1.992-.42,2.38,2.38,0,0,0-1.424,1.631,5.684,5.684,0,0,1-.448,1.72c-.249.375-.657.559-.943.9a1.7,1.7,0,0,0-.352.747h0a2.022,2.022,0,0,0-.048.467h0a.852.852,0,0,0,.017.207v.034a1.479,1.479,0,0,0,.048.227h0a1.958,1.958,0,0,0,.417.766,1.841,1.841,0,0,0,.674.487,2.732,2.732,0,0,0,.324.1l.333.076.117.028a5.578,5.578,0,0,0-.157,4.926,2.241,2.241,0,0,1-.028.235,19.346,19.346,0,0,0,.145,3.3,1.77,1.77,0,0,1-.2,1.256,2.381,2.381,0,0,1-.406.361c.151-.2.3-.389.462-.582a2,2,0,0,0-1.578-.408,7.309,7.309,0,0,0-3.077.94,3.444,3.444,0,0,1-1.986.755c-.422-.048-.839-.28-1.25-.168a2.534,2.534,0,0,0-.641.38.867.867,0,0,1-.526.162,11.356,11.356,0,0,0-1.645-1.345A12.959,12.959,0,0,1,209.971,90c-.906-1.094-1.81-2.19-2.7-3.3a6.345,6.345,0,0,1-1.65-3.122,3.053,3.053,0,0,1-.02-.355,9.037,9.037,0,0,1,.213-1.678.839.839,0,0,0,0-.406c-.084-.28-.406-.383-.683-.445h0c.036-.215.062-.436.076-.646a49.039,49.039,0,0,1,.5-7.205,4.9,4.9,0,0,1,1.161-2.481c1.021-1.032,2.73-1.281,3.513-2.5a2.855,2.855,0,0,0-.428-3.357,4.236,4.236,0,0,0-3.3-1.22,1.7,1.7,0,0,0-.959.257,2.039,2.039,0,0,0-.582.884l-1.2,2.917a17.648,17.648,0,0,0-.878,2.344c-.336,1.225-.411,2.517-.677,3.754a9.761,9.761,0,0,1-.948,3.013c-.375.985-.78,1.958-1.119,2.962-.084.252-.378,1-.559,1.678a1.024,1.024,0,0,0-.19.143,5.061,5.061,0,0,0-.4.59c-.255.336-.669.515-.948.839s-.338.92.05,1.082a1.141,1.141,0,0,0,.243.053.794.794,0,0,1,.674,1.108c-.062.436-.28.839-.316,1.276a3.442,3.442,0,0,0,.814,2.14,18.447,18.447,0,0,0,1.494,2.011c.394.442.839.839,1.236,1.264,1.513,1.555,2.716,3.373,4.075,5.063a11.226,11.226,0,0,0,1.659,1.74,12.491,12.491,0,0,0,1.256.864l2.338,1.482a2.563,2.563,0,0,0,.884.417,1.175,1.175,0,0,0,.313,0c.014.07.025.137.042.207a12.313,12.313,0,0,1,.627,2.145c.045.747-.022,1.51.031,2.266.05.7.2,1.4.243,2.084a13.392,13.392,0,0,1-.559,3.916,23.353,23.353,0,0,1-1.678,5.536,3.255,3.255,0,0,0-.559,1.494.774.774,0,0,0,.017.2h0l-.42.238c-.123.07-.246.14-.358.213a2.994,2.994,0,0,0-1.317,1.329c-.176.484-.1,1.038-.308,1.508a.666.666,0,0,1-.034.062c-.224.436-.669.761-.769,1.239h0c-.076.366.07.755,0,1.119v.014a4.049,4.049,0,0,0-.151.559.669.669,0,0,0,.017.185,1.066,1.066,0,0,0,.336.545,2.238,2.238,0,0,0,.327.26q.179.117.369.218l.073.039c.106.056.213.109.322.159l.073.031c.126.056.255.106.383.151l.09.028c.1.034.2.064.308.09l.07.022.064.014.28.059.1.02q.185.031.378.05h.112c.1,0,.187.014.28.017h.512a3.133,3.133,0,0,0,.394-.036h.042c.117-.017.235-.036.352-.062l.09-.02c.109-.025.218-.05.327-.084l.059-.017c.131-.039.263-.081.392-.131a10.277,10.277,0,0,0,1.292-.641c.28-.154.559-.31.839-.453a6.515,6.515,0,0,1,.638-.28,3.6,3.6,0,0,1,1.678-.28,6.572,6.572,0,0,1,.839.171q0,.046,0,.092.341,2.014.674,4.028a8.2,8.2,0,0,1,1.158-.7,2.574,2.574,0,0,0-.148.629,2.494,2.494,0,0,0,0,.5,1.087,1.087,0,0,1-.078.769c-.1.129-.28.2-.333.347a1.184,1.184,0,0,0-.028.456.727.727,0,0,1-.666.677,1.063,1.063,0,0,1-.422,1.248,1.478,1.478,0,0,0-.324.213.968.968,0,0,0-.187.422,7.474,7.474,0,0,1-2.19,3.6,7.041,7.041,0,0,0-1.082,1.057,4.813,4.813,0,0,0-.49.965q-1.119,2.736-2.271,5.474a12.147,12.147,0,0,0-.973,3.158c-.336,3.015-3.021,5.572-2.517,8.565a4.2,4.2,0,0,0,.873,2.045,5.147,5.147,0,0,0,2.238,1.373,40.738,40.738,0,0,0,6.7,1.759l3.558.73a15.554,15.554,0,0,0,2.12.336,13.878,13.878,0,0,1,2.576.2,8,8,0,0,0,1.547.411c.459.025,1.024-.073,1.3.3s.062.87.319,1.2c.414.529,1.424,0,1.874.5a2.32,2.32,0,0,1,.28.618,1.119,1.119,0,0,0,.28.352,2.364,2.364,0,0,1,.034.478,8.248,8.248,0,0,1-.4,1.908q-.5,1.7-1,3.41a7.55,7.55,0,0,0-.28,1.231,2.957,2.957,0,0,0,0,.61,1.675,1.675,0,0,0,1,1.457,1.841,1.841,0,0,0,1.359-.168,6.007,6.007,0,0,0,1.119-.755,7.639,7.639,0,0,0,1.614-1.662c1.4-2.092.945-4.923,1.927-7.236.652-1.544,1.922-2.8,2.344-4.425a1.771,1.771,0,0,0,.034-.957,1.982,1.982,0,0,0-1.329-1.08h-.025a11.463,11.463,0,0,0-1.4-.4c-.117-.025-.238-.045-.358-.064a2.2,2.2,0,0,1-.618-.806,1.874,1.874,0,0,0-.131-.484.5.5,0,0,0-.4-.224c-.28-.028-.655.073-.959.05-.624-.045-1.038-.657-1.6-.94a3.262,3.262,0,0,0-1.762-.171,1.631,1.631,0,0,1-.638-.039,2.4,2.4,0,0,1-.671-.462,2.814,2.814,0,0,0-2.464-.5,2.685,2.685,0,0,1-.839.19c-.545-.031-.931-.517-1.334-.887-1.1-1.01-2.671-1.275-4.008-1.938a.915.915,0,0,1-.481-.414c-.154-.38.193-.761.506-1.021l2.3-1.91c2.517-2.092,5.664-3.667,6.833-6.736a3.9,3.9,0,0,1,.559-1.15,1.561,1.561,0,0,1,.31-.28,2.35,2.35,0,0,1,1.72-.336,5.81,5.81,0,0,1,2.025.884q1.5.909,2.923,1.958a25.86,25.86,0,0,1,2.671,2.193c1.468,1.4,2.691,3.057,4.059,4.565A13.037,13.037,0,0,0,250,154.213a6.217,6.217,0,0,0,5.826-.52c1.882-1.4,2.487-3.9,2.962-6.193,1.049-1.013,1.365-2.554,1.877-3.916.322-.864.733-1.678,1.08-2.54.414-1.013.738-2.059,1.063-3.1a14.918,14.918,0,0,0,.744-3.236c.134-1.743-.333-3.6.157-5.233a19.294,19.294,0,0,0,1.868-.719,9.259,9.259,0,0,1,2.959-.255h.064a1.527,1.527,0,0,0,.985-.232,1.568,1.568,0,0,0,.406-1.192A3.637,3.637,0,0,0,269.164,124.107ZM228.636,76.393a2.078,2.078,0,0,1-.708.05Z" transform="translate(-53.835 -34.612)" fill="url(#linear-gradient)"/>
  <path id="Path_264" data-name="Path 264" d="M229.738,94.088a3.077,3.077,0,0,1-1.164.618l-1.983.71a7.389,7.389,0,0,1-3.337.635c-.635-.078-3.357-.478-3.768-.973-.627-.766,1.569-1.894,2.319-2.54a3.172,3.172,0,0,0,.47-.414,1.686,1.686,0,0,0,.2-1.25,19.3,19.3,0,0,1-.145-3.292,6.64,6.64,0,0,1,.112-.78c.28-1.287,1.477-.817,2.422-.476a18.942,18.942,0,0,1,3.287,1.424,2.358,2.358,0,0,1,.811.688,3.5,3.5,0,0,1,.182,2.238,2.1,2.1,0,0,0,.327,1.645,4.235,4.235,0,0,1,.529.559A1.049,1.049,0,0,1,229.738,94.088Z" transform="translate(-48.866 -34.612)" fill="#be6f72"/>
  <path id="Path_265" data-name="Path 265" d="M202.343,73.929c.28-1.239.341-2.517.677-3.745a17.535,17.535,0,0,1,.878-2.336l1.234-2.878a2.031,2.031,0,0,1,.582-.881,1.723,1.723,0,0,1,.959-.257,4.274,4.274,0,0,1,3.3,1.217,2.824,2.824,0,0,1,.428,3.337c-.783,1.222-2.492,1.469-3.513,2.5a4.891,4.891,0,0,0-1.161,2.475,48.771,48.771,0,0,0-.5,7.186,2.383,2.383,0,0,1-.839,1.986,2.448,2.448,0,0,1-1.253.243L201.3,82.8c-.308,0-1.424.193-1.628-.039-.358-.406.459-2.425.607-2.875.33-1,.736-1.972,1.119-2.954A9.823,9.823,0,0,0,202.343,73.929Z" transform="translate(-45.083 -34.612)" fill="#be6f72"/>
  <path id="Path_266" data-name="Path 266" d="M240.231,161.8c-.422,1.617-1.692,2.875-2.344,4.417-.982,2.308-.54,5.13-1.927,7.217a7.624,7.624,0,0,1-1.614,1.664,5.993,5.993,0,0,1-1.119.752,1.84,1.84,0,0,1-1.359.168,1.674,1.674,0,0,1-1-1.455,2.935,2.935,0,0,1,0-.607,7.523,7.523,0,0,1,.28-1.228q.5-1.7,1-3.4a8.234,8.234,0,0,0,.4-1.9c.036-.7-.411-1.622-.221-2.28.087-.3.411-.559.559-.808a4.68,4.68,0,0,0,.481-1.144,7.112,7.112,0,0,1,.867-2.271,5.33,5.33,0,0,1,1.091-1.021,2.892,2.892,0,0,1,1.041-.585,2.548,2.548,0,0,1,1.119.053,10.98,10.98,0,0,1,1.4.4h.025a1.958,1.958,0,0,1,1.329,1.077A1.759,1.759,0,0,1,240.231,161.8Z" transform="translate(-50.916 -34.612)" fill="#3f3d56"/>
  <path id="Path_267" data-name="Path 267" d="M269.992,127.416a1.55,1.55,0,0,1-.406,1.189,1.527,1.527,0,0,1-.985.232h-.076a9.427,9.427,0,0,0-2.959.255,11.191,11.191,0,0,1-2.129.761,5.194,5.194,0,0,1-2.917-.94,29.021,29.021,0,0,0-2.649-1.259c-.593-.243-1.8-.4-2.089-1.049a9.55,9.55,0,0,1-.246-.934,3.1,3.1,0,0,0-.171-.411,2.364,2.364,0,0,1-.313-.926,1.429,1.429,0,0,1,.319-.9,2.682,2.682,0,0,1,1.832-.943,8.112,8.112,0,0,1,2.109.112l6.887.99c.531.076,1.066.151,1.589.28a3.116,3.116,0,0,1,1.365.6A3.536,3.536,0,0,1,269.992,127.416Z" transform="translate(-56.453 -34.612)" fill="#3f3d56"/>
  <path id="Path_268" data-name="Path 268" d="M263.939,129.206c-.839,1.771-.235,3.866-.386,5.824a14.845,14.845,0,0,1-.744,3.228c-.324,1.041-.649,2.084-1.063,3.094-.347.839-.758,1.678-1.08,2.534-.512,1.365-.839,2.9-1.877,3.916-.476,2.288-1.08,4.789-2.962,6.176a6.2,6.2,0,0,1-5.826.52,13.037,13.037,0,0,1-4.831-3.636c-1.368-1.508-2.59-3.15-4.059-4.554a25.454,25.454,0,0,0-2.677-2.19q-1.421-1.032-2.923-1.941a5.855,5.855,0,0,0-2.025-.881,2.35,2.35,0,0,0-1.72.336,1.561,1.561,0,0,0-.31.28,3.849,3.849,0,0,0-.559,1.147c-1.175,3.06-4.327,4.632-6.845,6.719l-2.3,1.9c-.313.26-.66.641-.506,1.018a.915.915,0,0,0,.481.414c1.337.66,2.906.926,4.008,1.933.4.369.789.856,1.334.884a2.679,2.679,0,0,0,.839-.187,2.822,2.822,0,0,1,2.464.492,2.4,2.4,0,0,0,.671.462,1.631,1.631,0,0,0,.638.039,3.4,3.4,0,0,1,1.762.171c.534.266.973.892,1.6.937.3.022.669-.078.959-.05a.5.5,0,0,1,.4.224,1.853,1.853,0,0,1,.131.481c.115.394.5.635.752.959a2.65,2.65,0,0,1,.4,1.8,7.7,7.7,0,0,1-2.45,5.152,3.032,3.032,0,0,1-1.508.839,1.4,1.4,0,0,1-1.494-.663,2.3,2.3,0,0,0-.28-.615c-.45-.5-1.46.031-1.874-.5-.257-.33-.073-.859-.319-1.2s-.839-.28-1.3-.3a8.2,8.2,0,0,1-1.547-.411,13.9,13.9,0,0,0-2.576-.2,15.551,15.551,0,0,1-2.12-.336l-3.558-.727a42.17,42.17,0,0,1-6.7-1.754,5.389,5.389,0,0,1-2.238-1.371,4.2,4.2,0,0,1-.873-2.042c-.506-2.985,2.179-5.536,2.517-8.542a11.983,11.983,0,0,1,.973-3.15q1.138-2.73,2.271-5.463a4.865,4.865,0,0,1,.476-.968,7.024,7.024,0,0,1,1.083-1.055,7.449,7.449,0,0,0,2.19-3.592.968.968,0,0,1,.187-.422,1.572,1.572,0,0,1,.324-.21,1.063,1.063,0,0,0,.422-1.245.727.727,0,0,0,.666-.677,1.169,1.169,0,0,1,.028-.453c.067-.145.235-.218.333-.347a1.081,1.081,0,0,0,.078-.766,2.5,2.5,0,0,1,0-.5,2.571,2.571,0,0,1,.75-1.564c.669-.657,1.62-.487,2.543-.643a14.565,14.565,0,0,0,2.685-.859,26.38,26.38,0,0,1,7.583-1.754,16.556,16.556,0,0,1,7.659,1.22,4.355,4.355,0,0,1,.987.559,1.871,1.871,0,0,1,.517.618,5.764,5.764,0,0,0,.38.859c.3.408.864.54,1.192.926s.355,1.038.627,1.516c.389.683,1.289,1,1.558,1.74.084.235.1.492.157.736a4.208,4.208,0,0,0,1,1.572,12.086,12.086,0,0,1,2.708,6.154A4.68,4.68,0,0,1,253,137.374c.322-.21.694-.442.758-.822.081-.481-.386-.909-.355-1.4a1.371,1.371,0,0,1,.28-.655,20.7,20.7,0,0,1,1.751-2.2c.344-.378.73-.839.587-1.337-.109-.372-.49-.59-.7-.915a1.164,1.164,0,0,1,.028-1.287c.2-.266.506-.459.6-.775.109-.372-.134-.775-.059-1.158a1.432,1.432,0,0,1,.576-.747,3.524,3.524,0,0,1,3.594-.89c1.309.182,2.778.462,3.516,1.558A2.653,2.653,0,0,1,263.939,129.206Z" transform="translate(-53.383 -34.612)" fill="#65617d"/>
  <path id="Path_269" data-name="Path 269" d="M269.992,127.416a1.55,1.55,0,0,1-.406,1.189,1.527,1.527,0,0,1-.985.232h-.076c.115-.582.822-.915.945-1.5a1.331,1.331,0,0,0-.308-1.015,5.042,5.042,0,0,0-2.517-1.583,16.677,16.677,0,0,0-8.408-.629,8.467,8.467,0,0,0-2.21.68,7.2,7.2,0,0,0-.671.476,2.364,2.364,0,0,1-.313-.926,1.429,1.429,0,0,1,.319-.9,2.682,2.682,0,0,1,1.832-.943,8.112,8.112,0,0,1,2.109.112l6.887.99c.531.076,1.066.151,1.589.28a3.116,3.116,0,0,1,1.365.6A3.512,3.512,0,0,1,269.992,127.416Z" transform="translate(-56.453 -34.612)" opacity="0.1"/>
  <path id="Path_270" data-name="Path 270" d="M240.231,161.8c-.422,1.617-1.692,2.875-2.344,4.417-.982,2.308-.54,5.13-1.927,7.217a7.624,7.624,0,0,1-1.614,1.664,5.993,5.993,0,0,1-1.119.752,1.84,1.84,0,0,1-1.359.168,1.674,1.674,0,0,1-1-1.455,2.935,2.935,0,0,1,0-.607l.017.045c.243.587.641,1.2,1.267,1.306a1.715,1.715,0,0,0,1.292-.456,7.989,7.989,0,0,0,1.972-2.912,12.11,12.11,0,0,0,.945-2.414c.112-.476.165-.962.28-1.438.531-2.31,2.341-4.2,2.741-6.537a1.6,1.6,0,0,0,.022-.49,2.473,2.473,0,0,0-.241-.61,3.02,3.02,0,0,1-.213-.677,1.958,1.958,0,0,1,1.329,1.077,1.76,1.76,0,0,1-.045.948Z" transform="translate(-50.918 -34.612)" opacity="0.1"/>
  <path id="Path_271" data-name="Path 271" d="M236.007,157.793a4.053,4.053,0,0,1-1.262,1.723,6.154,6.154,0,0,1-2.716,1.175,2.7,2.7,0,0,1-1.4-.017c-.621-.215-1.069-.8-1.7-.965a11.654,11.654,0,0,0-1.4-.081,4.963,4.963,0,0,1-2.131-1.248c-2.039-1.533-4.716-2.028-6.755-3.561a.627.627,0,0,1-.218-.227.674.674,0,0,1-.042-.316,6.433,6.433,0,0,1,.613-2.688,9.378,9.378,0,0,1,1.152-1.642,49.817,49.817,0,0,1,5.849-6.38,8.862,8.862,0,0,1,3.077-1.888,4.612,4.612,0,0,1,2.7-.05,1.56,1.56,0,0,0-.31.28,3.848,3.848,0,0,0-.559,1.147c-1.178,3.063-4.33,4.635-6.847,6.722l-2.3,1.9c-.313.26-.66.641-.506,1.018a.915.915,0,0,0,.481.414c1.337.66,2.906.926,4.008,1.933.4.369.789.856,1.334.884a2.679,2.679,0,0,0,.839-.187,2.822,2.822,0,0,1,2.464.492,2.4,2.4,0,0,0,.671.462,1.631,1.631,0,0,0,.638.039,3.4,3.4,0,0,1,1.762.171c.534.266.973.892,1.6.937C235.352,157.866,235.716,157.759,236.007,157.793Z" transform="translate(-49.606 -34.612)" opacity="0.1"/>
  <path id="Path_272" data-name="Path 272" d="M210.281,119.83a2.97,2.97,0,0,0-1.315,1.32c-.179.484-.1,1.038-.31,1.508s-.7.8-.806,1.3c-.076.366.073.752,0,1.119a4.821,4.821,0,0,0-.154.582c-.028.417.33.755.68.987a5.678,5.678,0,0,0,5.082.559,22.958,22.958,0,0,0,2.137-1.094,4.226,4.226,0,0,1,2.3-.559c.462.05.9.218,1.365.28a1.432,1.432,0,0,0,1.278-.38,1.594,1.594,0,0,0,.28-.663,9.907,9.907,0,0,0-.157-4.708c-.369-1.544-.929-3.029-1.323-4.565a20.944,20.944,0,0,0-.962-3.382,4.437,4.437,0,0,0-2.352-2.489.439.439,0,0,0-.28-.036.475.475,0,0,0-.182.134,8.6,8.6,0,0,0-1.919,3.228c-.439,1.34-.559,2.761-.962,4.106a4.205,4.205,0,0,1-.839,1.737A9.588,9.588,0,0,1,210.281,119.83Z" transform="translate(-46.933 -34.612)" fill="#3f3d56"/>
  <path id="Path_273" data-name="Path 273" d="M220.829,124.781a1.631,1.631,0,0,1-.294.663,1.418,1.418,0,0,1-1.278.378c-.459-.056-.9-.227-1.362-.28a4.218,4.218,0,0,0-2.3.559c-.716.358-1.4.8-2.14,1.091a5.647,5.647,0,0,1-3.393.193,5.474,5.474,0,0,1-1.678-.738,1.2,1.2,0,0,1-.68-.987,4.785,4.785,0,0,1,.154-.579c.073-.366-.073-.752,0-1.119.106-.5.593-.839.806-1.3s.131-1.021.308-1.5a2.982,2.982,0,0,1,1.317-1.323,10.05,10.05,0,0,0,1.589-1.024,1.577,1.577,0,0,0,.148-.207,5.035,5.035,0,0,0,.666-1.541c.411-1.348.523-2.766.959-4.109a8.618,8.618,0,0,1,1.922-3.225.422.422,0,0,1,.179-.134.448.448,0,0,1,.28.034,4.469,4.469,0,0,1,2.352,2.492,22.025,22.025,0,0,1,.962,3.379c.392,1.536.954,3.027,1.323,4.568A9.952,9.952,0,0,1,220.829,124.781Z" transform="translate(-46.934 -34.612)" opacity="0.1"/>
  <path id="Path_274" data-name="Path 274" d="M229.148,90.667a5.594,5.594,0,0,1-6.814-3.077,6.633,6.633,0,0,1,.112-.78c.28-1.287,1.477-.817,2.422-.476a18.942,18.942,0,0,1,3.287,1.424,2.358,2.358,0,0,1,.811.688A3.446,3.446,0,0,1,229.148,90.667Z" transform="translate(-48.933 -34.612)" opacity="0.1"/>
  <circle id="Ellipse_128" data-name="Ellipse 128" cx="5.594" cy="5.594" r="5.594" transform="translate(172.452 44.849)" fill="#be6f72"/>
  <path id="Path_275" data-name="Path 275" d="M242.639,126.862c0,.464-.629.613-1.1.587a35.417,35.417,0,0,0-4.982-.42c-2.1.19-4.031,1.351-6.137,1.457a18.6,18.6,0,0,0-2.436.07c-1.035.193-1.958.822-3.013.912-.915.078-1.818-.266-2.733-.229a4.391,4.391,0,0,0-1.827.52,2.571,2.571,0,0,1,.75-1.564c.669-.657,1.62-.487,2.543-.643a14.564,14.564,0,0,0,2.685-.859,26.381,26.381,0,0,1,7.583-1.754,16.556,16.556,0,0,1,7.656,1.211,4.355,4.355,0,0,1,.987.559.439.439,0,0,1,.02.151Z" transform="translate(-50.662 -34.612)" opacity="0.1"/>
  <path id="Path_276" data-name="Path 276" d="M224.871,95.271l-2.266-.839-.957-.352a4.626,4.626,0,0,0-1.22-.324,3.1,3.1,0,0,0-2.713,1.578,8.523,8.523,0,0,0-.993,3.124q-.386,2.221-.655,4.459a29.125,29.125,0,0,0-.294,4.067,48.182,48.182,0,0,0,1.6,10.249,36.047,36.047,0,0,1,.892,4.545c.067.632.1,1.267.165,1.9.073.713.19,1.418.308,2.126l.674,4.02a5.313,5.313,0,0,1,2.825-1.15c.915-.034,1.821.308,2.733.229a31.216,31.216,0,0,0,3.013-.909,18.156,18.156,0,0,1,2.439-.07c2.1-.106,4.036-1.27,6.134-1.457a33.7,33.7,0,0,1,4.985.417c.464.028,1.094-.12,1.094-.587,0-.324-.324-.54-.607-.7a29.929,29.929,0,0,1-3.79-2.7,12.8,12.8,0,0,1-2.979-2.948c-1.827-2.839-1.2-6.68-2.758-9.675-1.267-2.434,0-5.622,0-8.366a17.315,17.315,0,0,0-.322-4.081,17.313,17.313,0,0,0-.75-2.182l-1.088-2.755a.45.45,0,0,0-.129-.21.428.428,0,0,0-.249-.076,2.624,2.624,0,0,0-1.807.579c-.512.417-.839,1.015-1.343,1.449A2.043,2.043,0,0,1,224.871,95.271Z" transform="translate(-50.39 -34.612)" fill="#e3e8f4"/>
  <path id="Path_277" data-name="Path 277" d="M228.527,93.682a4.964,4.964,0,0,1,.884-2.162,1.7,1.7,0,0,1,2.106-.487c.75.487.78,1.611,1.421,2.238a3.447,3.447,0,0,0,2.159.649,14.643,14.643,0,0,1,3.992.94,1.631,1.631,0,0,1,.663.4c.35.4.28,1.007.453,1.5.238.638.9,1.043,1.15,1.678a3.347,3.347,0,0,1-.235,2.218c-.422,1.3-.688,2.652-1.1,3.958a8.812,8.812,0,0,1-1.958,3.578c-.425.436-1.057.839-1.617.579l-.215,1.552a2.637,2.637,0,0,0,0,.993.889.889,0,0,0,.649.688c.042.241.3.355.5.487a1.4,1.4,0,0,1,.355,1.958c-.176.238-.436.425-.52.708a1,1,0,0,0,.537,1.063c.364.224.792.327,1.161.543a3.61,3.61,0,0,1,1.441,2.157,4,4,0,0,0,.839,1.793c.185.176.406.31.582.5a2.123,2.123,0,0,1,.5,1.284,2.548,2.548,0,0,1-.364,1.678,5.07,5.07,0,0,1-2.517,1.4,21.213,21.213,0,0,0-4.017,2.629,4.285,4.285,0,0,1-1.832.862,16.046,16.046,0,0,1-2.71-.316,6.73,6.73,0,0,0-1.617.213l-1.678.364c.09-1.3-.627-2.6-1.027-3.843a19.1,19.1,0,0,1-.716-7.273,56.962,56.962,0,0,1,1.169-7.256,46.263,46.263,0,0,1,.839-5.063,33.352,33.352,0,0,0,1.463-4.71C229.7,98.53,227.929,96.289,228.527,93.682Z" transform="translate(-50.914 -34.612)" fill="#3f3d56"/>
  <path id="Path_278" data-name="Path 278" d="M241.251,98.854a3.077,3.077,0,0,1,.322.909,3.282,3.282,0,0,0,.708,1.331,4.585,4.585,0,0,1,.744.839,6.273,6.273,0,0,1,.28,1.611,12.946,12.946,0,0,1,.6,1.678,3.077,3.077,0,0,0,.048.509c.182.677,1.178.839,1.4,1.516.148.439-.106.917-.059,1.379a1.214,1.214,0,0,1,.025.436.887.887,0,0,1-.319.408,6.434,6.434,0,0,0-1.841,3.275,18.653,18.653,0,0,0-.422,3.785l-1.094-1.446a1.662,1.662,0,0,0-.436-.448c-.14-.084-.3-.126-.445-.21a2.024,2.024,0,0,1-.736-1.18,10.909,10.909,0,0,0-1.958-3.39,3.7,3.7,0,0,1-1.06-1.729,3.184,3.184,0,0,1,.05-.934,15.93,15.93,0,0,1,1.471-5.334c.417-.761.957-1.449,1.357-2.221C240.158,99.128,240.535,97.8,241.251,98.854Z" transform="translate(-51.955 -34.612)" fill="#3f3d56"/>
  <path id="Path_279" data-name="Path 279" d="M213.658,100.614a1.278,1.278,0,0,1-.173.671.884.884,0,0,1-.884.28,2.556,2.556,0,0,1-.884-.414l-2.338-1.48a12.943,12.943,0,0,1-1.256-.862,11.209,11.209,0,0,1-1.659-1.737c-1.359-1.678-2.562-3.5-4.075-5.035-.411-.42-.839-.822-1.236-1.262a18.41,18.41,0,0,1-1.494-2.008,3.421,3.421,0,0,1-.814-2.134c.045-.436.255-.839.316-1.273a.793.793,0,0,0-.674-1.1,1.143,1.143,0,0,1-.243-.053c-.389-.162-.33-.764-.05-1.08s.694-.492.948-.839a5.06,5.06,0,0,1,.4-.59,1.513,1.513,0,0,1,.652-.327,10.087,10.087,0,0,1,4.965-.187c.28.062.6.173.682.445a.819.819,0,0,1,0,.4,9,9,0,0,0-.213,1.678,2.973,2.973,0,0,0,.02.352,6.328,6.328,0,0,0,1.65,3.116c.889,1.1,1.793,2.2,2.7,3.287a12.916,12.916,0,0,0,1.636,1.748,9.337,9.337,0,0,1,1.72,1.435,3.14,3.14,0,0,1,.28,1.717,38.124,38.124,0,0,1,.028,5.253Z" transform="translate(-45.325 -34.612)" fill="#3f3d56"/>
  <path id="Path_280" data-name="Path 280" d="M249.181,112.283a5.872,5.872,0,0,0,.744-.881,5.812,5.812,0,0,0,.559-1.25l1.622-4.6c.257-.727.515-1.457.839-2.165.336-.764.733-1.5,1.1-2.238a29.845,29.845,0,0,0,2.173-6.084,2.255,2.255,0,0,0,.087-.892,2.346,2.346,0,0,0-.794-1.206,5.815,5.815,0,0,0-1.192-.985,1.958,1.958,0,0,0-1.494-.241,2.158,2.158,0,0,0-1.331,1.678,17.527,17.527,0,0,0-.173,2.238c-.1,1.074-.47,2.112-.559,3.189-.048.624,0,1.253-.076,1.874a6.845,6.845,0,0,1-.839,2.313,15.018,15.018,0,0,1-3.617,4.447,5.816,5.816,0,0,0-1.085,1.043,3.4,3.4,0,0,0-.523,1.3,3,3,0,0,0,.227,2.117,3.108,3.108,0,0,0,2.168,1.292C248.146,113.472,248.407,113.086,249.181,112.283Z" transform="translate(-53.905 -34.612)" fill="#be6f72"/>
  <path id="Path_281" data-name="Path 281" d="M227.492,76.95a2.61,2.61,0,0,1,2.534-1.373,2.8,2.8,0,0,1,2.2,1.975,5.1,5.1,0,0,0,.414,1.236c.347.54.99.7,1.471,1.088a2.945,2.945,0,0,1,.94,2.081,6.3,6.3,0,0,1-.372,2.352,7.481,7.481,0,0,0-.28.985c-.056.324-.062.655-.112.979A3.189,3.189,0,0,1,233,88.39a.559.559,0,0,1-.347.126c-.218-.025-.352-.28-.434-.509-.445-1.284-.338-2.853-1.158-3.877a4.238,4.238,0,0,0-1.326-.987,1.709,1.709,0,0,0-.677-.255,1.782,1.782,0,0,0-.979.358,6.1,6.1,0,0,1-1.936.856,2.378,2.378,0,0,1-2-.431c-.386-.319-.669-.8-1.1-1.046a8.446,8.446,0,0,0-1.3-.406,1.922,1.922,0,0,1-.778-2.931c.28-.336.694-.526.943-.9a5.666,5.666,0,0,0,.448-1.717,2.364,2.364,0,0,1,1.424-1.625,2,2,0,0,1,1.992.417c.28.252.5.576.778.839a2.238,2.238,0,0,0,2.07.559" transform="translate(-49.608 -34.612)" fill="#3f3d56"/>
  <path id="Path_282" data-name="Path 282" d="M232.091,118.121a1.085,1.085,0,0,0-.3,1.186,26.192,26.192,0,0,0,3.253-.467c.761-.109,2.1-.056,2.607-.752.912-1.234-1.913-.959-2.431-.915A5.33,5.33,0,0,0,232.091,118.121Z" transform="translate(-50.625 -34.612)" opacity="0.1"/>
  <path id="Path_283" data-name="Path 283" d="M205.831,82.038a9.006,9.006,0,0,0-.213,1.678,4.888,4.888,0,0,1-2.517-.389l-2.313-.789a.657.657,0,0,0-.884.165,19.589,19.589,0,0,1-1.4,1.552,1.142,1.142,0,0,1-.243-.053c-.389-.162-.33-.764-.05-1.08s.694-.492.948-.839a5.059,5.059,0,0,1,.4-.59,1.513,1.513,0,0,1,.652-.327,10.087,10.087,0,0,1,4.965-.187c.28.062.6.173.683.445A.82.82,0,0,1,205.831,82.038Z" transform="translate(-44.382 -34.612)" fill="#3f3d56"/>
  <path id="Path_284" data-name="Path 284" d="M205.831,82.038a9.006,9.006,0,0,0-.213,1.678,4.888,4.888,0,0,1-2.517-.389l-2.313-.789a.657.657,0,0,0-.884.165,19.589,19.589,0,0,1-1.4,1.552,1.142,1.142,0,0,1-.243-.053c-.389-.162-.33-.764-.05-1.08s.694-.492.948-.839a5.059,5.059,0,0,1,.4-.59,1.513,1.513,0,0,1,.652-.327,10.087,10.087,0,0,1,4.965-.187c.28.062.6.173.683.445A.82.82,0,0,1,205.831,82.038Z" transform="translate(-44.382 -34.612)" opacity="0.1"/>
  <path id="Path_285" data-name="Path 285" d="M226.992,135.142a1.4,1.4,0,0,1,.976.733l-3.239-.822-1.678-.428c-.3-.076-1.359-.162-1.555-.394-.28-.341.713-.106.892-.081.543.081,1.085.165,1.625.263C225.031,134.593,226.01,134.893,226.992,135.142Z" transform="translate(-48.713 -34.612)" opacity="0.1"/>
  <path id="Path_286" data-name="Path 286" d="M228.248,138.009a6.056,6.056,0,0,0-1.427-.246c-.5-.12-1-.28-1.494-.434-1-.327-2-.7-3.032-.94-.19-.042-.839-.053-.808-.294s.649-.324.8-.336a7.93,7.93,0,0,1,2.906.666A12.809,12.809,0,0,1,228.248,138.009Z" transform="translate(-48.752 -34.612)" opacity="0.1"/>
  <path id="Path_287" data-name="Path 287" d="M226.194,132.585a21.479,21.479,0,0,0-3.015-1.041,1.225,1.225,0,0,1-.769-.235.906.906,0,0,1-.249-.448,5.212,5.212,0,0,1,2.173.545,6.839,6.839,0,0,1,1.018.543C225.587,132.093,225.94,132.5,226.194,132.585Z" transform="translate(-48.527 -34.612)" opacity="0.1"/>
  <path id="Path_288" data-name="Path 288" d="M245.763,107.539a4.892,4.892,0,0,0,3.429,5.407c-.137.663-.822,1.029-1.306,1.5-.682.663-1.035,1.656-1.841,2.159a4.106,4.106,0,0,1-3.077.106.375.375,0,0,1-.241-.126.344.344,0,0,1-.045-.109,7.2,7.2,0,0,1-.213-3.8,12.421,12.421,0,0,1,1.488-2.892C244.5,108.848,244.547,107.847,245.763,107.539Z" transform="translate(-52.758 -34.612)" fill="#3f3d56"/>
  <path id="Path_289" data-name="Path 289" d="M220.754,91.5a7.273,7.273,0,0,0-3.077.937,3.44,3.44,0,0,1-1.986.752c-.422-.048-.839-.28-1.25-.168a2.453,2.453,0,0,0-.641.38.724.724,0,0,1-.7.112l-.28,3.871a14.193,14.193,0,0,0,.143,4.408,12.356,12.356,0,0,1,.627,2.143c.045.744-.022,1.508.031,2.26.05.7.2,1.382.243,2.078a13.223,13.223,0,0,1-.559,3.9,23.183,23.183,0,0,1-1.678,5.519,3.256,3.256,0,0,0-.559,1.491.762.762,0,0,0,.017.2c-.28.154-.54.3-.778.45a2.982,2.982,0,0,0-1.317,1.323c-.176.484-.1,1.038-.308,1.5s-.7.8-.806,1.3c-.076.366.07.752,0,1.119a4.779,4.779,0,0,0-.154.579,1.215,1.215,0,0,0,.68.987,5.474,5.474,0,0,0,1.678.738l1.67-6.629h0a53.45,53.45,0,0,0,3.785-8.8,18.928,18.928,0,0,1,1.094-2.9,13.618,13.618,0,0,0,.839-1.645,12.39,12.39,0,0,0,.4-2.213,15.485,15.485,0,0,1,.657-2.554,10.96,10.96,0,0,0,.713-2.736c.092-1.348-.4-2.772.123-4.02a5.345,5.345,0,0,1,.853-1.284c.722-.884,1.379-1.81,2.1-2.694A1.94,1.94,0,0,0,220.754,91.5Z" transform="translate(-47.097 -34.612)" fill="#3f3d56"/>
  <g id="Group_190" data-name="Group 190" transform="translate(170.983 41.417)" opacity="0.1">
    <path id="Path_290" data-name="Path 290" d="M228.636,76.029l-.35.025-.039.028a2.063,2.063,0,0,0,.389-.053Z" transform="translate(-220.592 -76.029)"/>
    <path id="Path_291" data-name="Path 291" d="M235.036,81.836a7.536,7.536,0,0,1-.358,1.634,7.482,7.482,0,0,0-.28.985c-.056.324-.062.655-.112.979A3.189,3.189,0,0,1,233,87.551a.559.559,0,0,1-.347.126c-.218-.025-.352-.28-.434-.509-.445-1.284-.338-2.853-1.158-3.877a4.237,4.237,0,0,0-1.326-.987,1.709,1.709,0,0,0-.677-.255,1.782,1.782,0,0,0-.979.358,6.1,6.1,0,0,1-1.936.856,2.378,2.378,0,0,1-2-.431c-.386-.319-.669-.8-1.1-1.046a8.445,8.445,0,0,0-1.3-.406,1.91,1.91,0,0,1-1.091-1.248.8.8,0,0,1-.022-.106,1.958,1.958,0,0,0,.022.945,1.91,1.91,0,0,0,1.091,1.248,9.433,9.433,0,0,1,1.3.406,10.584,10.584,0,0,1,1.1,1.046,2.378,2.378,0,0,0,2,.431,6.1,6.1,0,0,0,1.936-.856,1.782,1.782,0,0,1,.979-.358,1.709,1.709,0,0,1,.677.255,4.238,4.238,0,0,1,1.306,1c.82,1.024.713,2.593,1.158,3.877.081.232.215.484.434.509A.559.559,0,0,0,233,88.39a3.189,3.189,0,0,0,1.287-2.126c.05-.324.056-.655.112-.979a7.477,7.477,0,0,1,.28-.985,6.3,6.3,0,0,0,.372-2.352C235.047,81.915,235.042,81.875,235.036,81.836Z" transform="translate(-220.592 -76.029)"/>
  </g>
  <path id="Path_292" data-name="Path 292" d="M217.339,104.281l-.19,2.554a53.107,53.107,0,0,1-5.58,18.254A51.8,51.8,0,0,1,183.792,150.2q-1.8.713-3.745,1.331L178.6,147a52.987,52.987,0,0,0,10.411-4.554,46.077,46.077,0,0,0,18.226-19.345,51.963,51.963,0,0,0,4.783-14.07H194.486v-4.755Z" transform="translate(-44.257 -34.612)" fill="#2b1c81"/>
  <path id="Path_293" data-name="Path 293" d="M181.9,150.207a51.791,51.791,0,0,0,27.773-25.113,53,53,0,0,0,5.58-18.254l.19-2.554h1.958l-.19,2.554a53.034,53.034,0,0,1-5.58,18.254,51.8,51.8,0,0,1-27.773,25.113q-1.8.713-3.748,1.334l-.19-.6Q180.937,150.585,181.9,150.207Z" transform="translate(-44.376 -34.612)" fill="#fff" opacity="0.1"/>
  <path id="Path_294" data-name="Path 294" d="M151.046,147l-1.443,4.531q-1.944-.621-3.748-1.334a51.791,51.791,0,0,1-27.773-25.113,53,53,0,0,1-5.58-18.254l-.19-2.554h22.842v4.755H117.612a51.994,51.994,0,0,0,4.8,14.07,46.048,46.048,0,0,0,18.223,19.342A52.867,52.867,0,0,0,151.046,147Z" transform="translate(-30.115 -34.612)" fill="#2b1c81"/>
  <path id="Path_295" data-name="Path 295" d="M147.74,150.207a51.791,51.791,0,0,1-27.773-25.113,53,53,0,0,1-5.58-18.254l-.19-2.554h-1.958l.19,2.554a53.034,53.034,0,0,0,5.58,18.254,51.8,51.8,0,0,0,27.773,25.113q1.8.713,3.748,1.334l.19-.6Q148.711,150.585,147.74,150.207Z" transform="translate(-30.001 -34.612)" fill="#fff" opacity="0.1"/>
  <path id="Path_296" data-name="Path 296" d="M191.21,190.808v25.641H138.437V190.808l1.678-2.238c17.1-6.07,20.567-21.9,21.258-28.162a25.748,25.748,0,0,0,.176-2.607h6.526a25.752,25.752,0,0,0,.176,2.607c.7,6.263,4.168,22.1,21.258,28.162Z" transform="translate(-37.152 -34.612)" fill="#2b1c81"/>
  <rect id="Rectangle_296" data-name="Rectangle 296" width="52.774" height="3.217" transform="translate(101.284 156.196)" opacity="0.1"/>
  <path id="Path_297" data-name="Path 297" d="M142.912,188.57c17.1-6.07,20.567-21.9,21.258-28.162a25.748,25.748,0,0,0,.176-2.607h-2.8a25.747,25.747,0,0,1-.176,2.607c-.7,6.263-4.168,22.1-21.258,28.162l-1.678,2.238v25.641h2.8V190.808Z" transform="translate(-34.473 -34.612)" fill="#fff" opacity="0.1"/>
  <path id="Path_298" data-name="Path 298" d="M130.42,104.281h4.733v4.755H130.84Q130.585,106.686,130.42,104.281Z" transform="translate(-31.158 -34.612)" opacity="0.1"/>
  <path id="Path_299" data-name="Path 299" d="M151.046,147l-1.443,4.531q-1.944-.621-3.748-1.334a50.111,50.111,0,0,1-5.222-7.754A52.865,52.865,0,0,0,151.046,147Z" transform="translate(-33.565 -34.612)" opacity="0.1"/>
  <path id="Path_300" data-name="Path 300" d="M178.6,147a52.987,52.987,0,0,0,10.411-4.554,50.308,50.308,0,0,1-5.222,7.757q-1.8.713-3.745,1.331Z" transform="translate(-40.923 -34.612)" opacity="0.1"/>
  <path id="Path_301" data-name="Path 301" d="M199.224,104.281q-.165,2.406-.42,4.755h-4.31v-4.755Z" transform="translate(-43.352 -34.612)" opacity="0.1"/>
  <path id="Path_302" data-name="Path 302" d="M168.263,160.408a18.081,18.081,0,0,1-6.878,0,25.747,25.747,0,0,0,.176-2.607h6.526a25.748,25.748,0,0,0,.176,2.607Z" transform="translate(-37.251 -34.612)" opacity="0.1"/>
  <path id="Path_303" data-name="Path 303" d="M130.979,96.4c.12,35.261,15.225,63.775,33.846,63.775S198.547,131.665,198.67,96.4Z" transform="translate(-37.113 -34.612)" fill="#2b1c81"/>
  <path id="Path_304" data-name="Path 304" d="M136.993,96.4h-6.014c.12,35.261,15.225,63.775,33.846,63.775a18.279,18.279,0,0,0,3.007-.255C150.618,157.049,137.108,129.746,136.993,96.4Z" transform="translate(-33.923 -34.612)" fill="#fff" opacity="0.1"/>
  <rect id="Rectangle_297" data-name="Rectangle 297" width="35.896" height="9.231" transform="translate(109.683 166.011)" fill="#3f3d56"/>
  <path id="Path_305" data-name="Path 305" d="M140.722,167.27h34.218v-1.259h-35.9v9.231h1.678Z" transform="translate(-29.36 0)" fill="#fff" opacity="0.1"/>
  <path id="Path_306" data-name="Path 306" d="M111.836,130.448c-.646-.215-4.45-3.225-4.738-4.587s2.011-14.053,2.011-14.053a5.166,5.166,0,0,1-.559-.042v-.2l.473-16.671S110.96,83.7,107.3,84.354s-1.365,10.537-1.365,10.537-.417,5.018-.71,6.523c-.28,1.452-1.561,7.365-.688,9.2a2,2,0,0,0,.106.19h0s.145,6.308-1.435,7.169c-1.508.82-2.134,4.945-2.187,5.315l-.081-.034h0a4.383,4.383,0,0,1-1.166-1.066c-.034-.042-.059-.087-.09-.131a6.16,6.16,0,0,0-1.9-9.619,3.972,3.972,0,0,0-.372-1.544c-.727-1.555-4.755-3.589-7.617-3.636-1.32-.039-2.4.336-2.8,1.368a7.892,7.892,0,0,0-.224,1.662,4.225,4.225,0,0,1-1.81,2.691,11.346,11.346,0,0,0-1.206-1.161,26.339,26.339,0,0,1-2.8-3.077s-5.815-6.022-6.246-7.673-6.24-11.561-7.533-9.835,4.45,9.247,4.45,9.247a17.494,17.494,0,0,0,1.93,3.656c.839.923,7.273,10.266,7.273,10.266l.308.638a5.589,5.589,0,0,0-3.04,3.049c-.643,2.092.764,4.2,1.737,6.154,1.9,3.821,2.168,8.694-.28,12.184-2.193,3.082-6,4.548-9.558,5.829a9.407,9.407,0,0,0,6.042,2.006c-.822,2.383-3.737,3.172-6.221,3.614a8.953,8.953,0,0,0,4.959,1.986,14.858,14.858,0,0,0,2.655.21h.218l.218-.017a7.6,7.6,0,0,0,.9-.115,4.747,4.747,0,0,0,3.208-2.109c.559-.976.755-2.308,1.771-2.8a2.263,2.263,0,0,1,.839-.2h.545l4.232.042h.54c1.194-.028,2.47-.235,3.077-1.222a3.39,3.39,0,0,0,.383-1.552c.09-1.34,0-2.719.036-4.07.361,2.459.738,6.291-.159,7.706a13.146,13.146,0,0,1-2.624,2.845,5.036,5.036,0,0,0-.694.71c-.137.1-.218.151-.218.151l-.087.26a4.925,4.925,0,0,0-.683,1.583,1.1,1.1,0,0,0-.053.45c.1.2-.7,1.018-.467,1.362a12.337,12.337,0,0,0-2.369,5.874L82.421,164.5c-1.868,4.909-4.666,5.412-4.666,5.412s-6.571-4.408-6.75-4.624a25.378,25.378,0,0,0-2.691-1.292,2.848,2.848,0,0,0-1.292-1.18c-.862-.358-.934-1.678-.934-1.678-.106-3.119-1.938-3.357-1.938-3.357a5.952,5.952,0,0,0-3.471.618l-.263.02c-1.27.1-2.8.218-4.475.33-4.668.308-5.779,3.331-5.779,3.331a.931.931,0,0,0,.179,1.345c.752.7,5.569,0,5.773-.017a3.127,3.127,0,0,1-1.1-.076c.758-.028,1.8-.056,2.691-.056h.215a11.64,11.64,0,0,0-.081,1.421c0,.9,2.475,1.469,2.475,1.469l7.538,6.713a29.859,29.859,0,0,1,7.754,5.164c3.015,3.046,5.681.417,5.681.417,3.192-.789,12.375-11.891,12.383-11.9h0c0,.324.193,11.121.559,13.289h0a1.44,1.44,0,0,0,.081.322c.431.931-.145,3.477-.394,4.551a12.643,12.643,0,0,0-.182,2.724s-3.443,13.147-3.158,14.3-1.866,6.523-1.866,6.523v4.475l.375-.02a2.414,2.414,0,0,0-.134.224l-.025.048a15.917,15.917,0,0,0,3.84.358c1.544-.143,4.2,1.189,4.2,1.189a11.682,11.682,0,0,0,3.661.6c2.764.179,2.764-1.22,2.764-1.22-.316-1.9-4.682-2.543-4.817-2.562-.352-.221-.683-.462-.954-.669l-.056-.045a1.2,1.2,0,0,0,.048-.129c.467-1.9-2.117-2.727-2.117-2.727v-.464c1.678-.862,2.011-6.775,2.011-6.775s2.517-7.312,2.87-8.531a8.063,8.063,0,0,0,0-3.046l.252-1.578a7.759,7.759,0,0,0,.54-1.289,3.186,3.186,0,0,1,.61-1.5c.394-.467-.431-1.578-.431-1.578l.719-1.863v-2.045l1.678-7.418s1.759-8.64,1.15-11.468a4.865,4.865,0,0,1,.719-4.266,3.531,3.531,0,0,1-.369.168,10.684,10.684,0,0,0,.434-1.192l3.776.467v.056h1.362s-.431-5.315-.431-7.457,1.452-9.832,1.452-9.832S112.482,130.663,111.836,130.448Zm-16.763-6.2c0,.21-.02.428-.034.652l-.076.115-.14-.117-.171.266-.05.025c-.369-.19-.559-1.278-.825-1.043l-.036.031c-.059-.067-.117-.087-.179-.031l-.056.048v-.249a6.293,6.293,0,0,0,1.566.2C95.075,124.174,95.072,124.21,95.072,124.244Zm12.559,24.749h.081l-.134.352C107.6,149.228,107.612,149.113,107.632,148.993ZM93.844,212.424l-.515-.129.28-.048.26.171.031.022Zm5.259-.752c-.171-.09-.344-.193-.512-.3C98.647,211.4,98.868,211.518,99.1,211.672Z" transform="translate(-11.694 -34.612)" fill="url(#linear-gradient-2)"/>
  <path id="Path_307" data-name="Path 307" d="M101.657,109.1l-3.387,8.828h.822l-3.186,2.54,5.751.716Z" transform="translate(-18.307 0)" fill="#f86d70"/>
  <path id="Path_308" data-name="Path 308" d="M101.657,109.1l-3.387,8.828-.853-.229-1.51,2.769,5.751.716Z" transform="translate(-18.307 0)" opacity="0.1"/>
  <path id="Path_309" data-name="Path 309" d="M96.345,114.745h5.312l1.95-16.042H96.345Z" transform="translate(-18.48 0)" fill="#f86d70"/>
  <path id="Path_310" data-name="Path 310" d="M96.345,114.745h5.312l1.95-16.042H96.345Z" transform="translate(-18.48 0)" opacity="0.1"/>
  <path id="Path_311" data-name="Path 311" d="M93.8,137.114l1.147-.193,2.635-.448s7.913-1.785,9.547-1.93a10.2,10.2,0,0,0,2.864-.817c.428-.185.7-.324.7-.324l-2.85-5.205-4.422-3.278s-2.8-.6-3.98-2.224a2.621,2.621,0,0,1-.366-2.484c.722-2.238-4.31,2.14-4.31,2.14s.048,1.049,0,2.386c0,.263-.025.537-.045.817a5.509,5.509,0,0,1-.045.559,9,9,0,0,1-.873,3.513C92.586,131.623,93.8,137.114,93.8,137.114Z" transform="translate(-24.768 -34.612)" fill="#fbbebe"/>
  <path id="Path_312" data-name="Path 312" d="M94.765,124.848h.112c.2,0,.364-.428.559-.448a5.8,5.8,0,0,0,4.011-1.6,2.624,2.624,0,0,1-.366-2.481c.722-2.238-4.31,2.137-4.31,2.137S94.823,123.511,94.765,124.848Z" transform="translate(-24.369 -34.612)" opacity="0.1"/>
  <path id="Path_313" data-name="Path 313" d="M88.639,118.5a6.129,6.129,0,0,0,6.131,6.131,4.271,4.271,0,0,0,.6-.028,6.131,6.131,0,1,0-6.73-6.1Z" transform="translate(-23.582 -34.612)" fill="#fbbebe"/>
  <path id="Path_314" data-name="Path 314" d="M86.756,109.2a7.543,7.543,0,0,0-.221,1.653c-.3,1.989-2.322,3.18-4.151,4.014s-3.894,1.821-4.475,3.743c-.638,2.078.755,4.162,1.723,6.112,1.885,3.8,2.154,8.643-.28,12.117-2.162,3.077-5.93,4.537-9.477,5.818a9.342,9.342,0,0,0,6,2c-.814,2.369-3.709,3.155-6.176,3.592a8.874,8.874,0,0,0,4.926,1.975,11.169,11.169,0,0,0,3.916.073,4.7,4.7,0,0,0,3.183-2.1c.559-.971.75-2.294,1.759-2.783a3.183,3.183,0,0,1,1.435-.21l4.2.045c1.306,0,2.853-.1,3.527-1.217a3.356,3.356,0,0,0,.38-1.544c.182-2.752-.347-5.661.786-8.173.341-.758-1.849-1.958-1.62-2.761a25.787,25.787,0,0,0,.979-7.807c0-2.224,1.446-4.14,2.641-6.017s2.193-4.246,1.25-6.26C96,109.22,88.012,105.956,86.756,109.2Z" transform="translate(-20.528 -34.612)" fill="#3f3d56"/>
  <path id="Path_315" data-name="Path 315" d="M92.342,211.618l1.069.708.165.109.031.02,1.267.839,2.959.5,2.6-.179s.75-1.566-.428-1.53a2.45,2.45,0,0,1-1.074-.31l-.162-.081h0c-.171-.09-.341-.19-.509-.3h0c-.35-.221-.68-.462-.945-.666-.392-.3-.652-.531-.652-.531Z" transform="translate(-24.096 -34.612)" fill="#fbbebe"/>
  <path id="Path_316" data-name="Path 316" d="M93.425,212.326l.165.109.031.02,1.267.839,2.959.5,2.6-.179s.75-1.566-.428-1.53a2.45,2.45,0,0,1-1.074-.31c.207.162.38.338.4.487.048.4-1.924,1.119-1.924,1.119l-2.78-.736s-.473-.134-1.119-.3l-.062-.017Z" transform="translate(-24.249 -34.612)" opacity="0.1"/>
  <path id="Path_317" data-name="Path 317" d="M88.67,213.009a15.747,15.747,0,0,0,3.813.355c1.533-.143,4.173,1.178,4.173,1.178a11.7,11.7,0,0,0,3.636.6c2.744.179,2.744-1.214,2.744-1.214-.313-1.894-4.649-2.517-4.783-2.545h0a5.332,5.332,0,0,1,.509.3h0c.308.2.641.464.666.677.048.4-1.924,1.119-1.924,1.119l-2.78-.733s-.473-.137-1.119-.3h-.062a23.844,23.844,0,0,0-2.915-.6,2.023,2.023,0,0,0-1.936,1.119.333.333,0,0,0-.022.056Z" transform="translate(-23.697 -34.612)" fill="#3f3d56"/>
  <path id="Path_318" data-name="Path 318" d="M52.737,162.707l1.211.929s.352-.017.878-.034h.168c.752-.028,1.79-.056,2.671-.056a8.482,8.482,0,0,1,1.7.1c.6.213,1.678-3.457,1.678-3.457l-1.214-.28-.4-.1-.28-.067-.987-.232-2.993.341-2.1,1.354Z" transform="translate(-7.826 -34.612)" fill="#fbbebe"/>
  <path id="Path_319" data-name="Path 319" d="M52.737,162.707l1.211.929s.352-.017.878-.034a1.06,1.06,0,0,1-.559-.5c-.783-2.173,3.1-3.1,3.1-3.1l1.81-.078.352-.017h.28l-.4-.1-.28-.067-.987-.232-2.993.341-2.1,1.354Z" transform="translate(-7.826 -34.612)" opacity="0.1"/>
  <path id="Path_320" data-name="Path 320" d="M50.349,163.689c.733.677,5.533,0,5.734-.017a3.021,3.021,0,0,1-1.088-.076,1.2,1.2,0,0,1-.839-.6c-.783-2.176,3.1-3.1,3.1-3.1l1.81-.078.35-.017,4.4-.19.213-1.211s-1.429.134-3.673.313c-1.262.1-2.8.218-4.456.327-4.635.308-5.737,3.315-5.737,3.315A.93.93,0,0,0,50.349,163.689Z" transform="translate(-10.995 -34.612)" fill="#3f3d56"/>
  <path id="Path_321" data-name="Path 321" d="M104.18,111.187a1.239,1.239,0,0,0,.106.19l1.069,1.566,2.78.28.031-1.1.467-16.582s1.924-11.121-1.712-10.481-1.354,10.481-1.354,10.481-.414,4.99-.7,6.489C104.58,103.478,103.313,109.369,104.18,111.187Z" transform="translate(-26.138 -34.612)" fill="#fbbebe"/>
  <path id="Path_322" data-name="Path 322" d="M97.939,152.372l.792,1.354,1.771,3.029s3.211,1.178,4.033.28a11.617,11.617,0,0,0,1.278-3.636c.28-1.164.467-2.145.467-2.145Z" transform="translate(-25.175 -34.612)" fill="#fbbebe"/>
  <path id="Path_323" data-name="Path 323" d="M97.939,152.372l.792,1.354a.932.932,0,0,0,.134-.143c.9-1.141,4.836-.243,6.948-.171.28-1.164.467-2.145.467-2.145Z" transform="translate(-25.175 -34.612)" opacity="0.1"/>
  <path id="Path_324" data-name="Path 324" d="M57.666,163.541a8.482,8.482,0,0,1,1.7.1c.6.213,1.678-3.457,1.678-3.457l-1.617-.38,4.4-.19.213-1.211s-1.429.134-3.673.313a4.615,4.615,0,0,0-1.222,1.021l-.067.084A7.331,7.331,0,0,0,57.666,163.541Z" transform="translate(-11.469 -34.612)" opacity="0.1"/>
  <path id="Path_325" data-name="Path 325" d="M92.342,211.618l1.234.817c1.841-.333,3.522-.856,3.72-1.678a.28.28,0,0,0,0-.039c-.392-.3-.652-.531-.652-.531Z" transform="translate(-23.922 -34.612)" opacity="0.1"/>
  <path id="Path_326" data-name="Path 326" d="M88.695,212.961a42.7,42.7,0,0,0,4.85-.52,23.847,23.847,0,0,0-2.917-.607A2.012,2.012,0,0,0,88.695,212.961Z" transform="translate(-23.223 -34.612)" opacity="0.1"/>
  <path id="Path_327" data-name="Path 327" d="M57.8,164.954c0,.892,2.459,1.463,2.459,1.463l7.488,6.666a29.589,29.589,0,0,1,7.7,5.133c2.993,3.029,5.633.428,5.633.428,3.172-.783,12.307-11.835,12.307-11.835s.213,12.621.641,13.547-.143,3.457-.392,4.529a12.588,12.588,0,0,0-.179,2.708s-3.421,13.082-3.136,14.223-1.855,6.489-1.855,6.489v4.456s8.377-.322,8.839-2.21-2.1-2.71-2.1-2.71v-.464c1.678-.856,1.994-6.736,1.994-6.736s2.5-7.273,2.853-8.484a7.932,7.932,0,0,0,0-3.032l.249-1.566a7.82,7.82,0,0,0,.534-1.284,3.172,3.172,0,0,1,.607-1.5c.392-.464-.428-1.569-.428-1.569l.713-1.855v-2.031l1.678-7.379s1.748-8.593,1.141-11.41a4.828,4.828,0,0,1,.713-4.24c-2.861,1.5-4.3-1.838-4.778-3.273-.12-.369-.179-.615-.179-.615a20.011,20.011,0,0,0-7.589-1.1,8.736,8.736,0,0,0-2.179.462c-4.064,1.463-4.7,7.522-4.7,7.522l-3.6,5.491c-1.855,4.884-4.635,5.382-4.635,5.382s-6.523-4.383-6.713-4.6a26.127,26.127,0,0,0-2.674-1.284,2.825,2.825,0,0,0-1.284-1.175c-.856-.358-.926-1.678-.926-1.678-.106-3.1-1.924-3.357-1.924-3.357C57.764,157.541,57.8,164.064,57.8,164.954Z" transform="translate(-18.828 -34.612)" fill="#3f3d56"/>
  <rect id="Rectangle_298" data-name="Rectangle 298" width="3.849" height="11.941" transform="translate(73.742 112.913) rotate(180)" fill="#f86d70"/>
  <rect id="Rectangle_299" data-name="Rectangle 299" width="3.849" height="11.941" transform="translate(73.742 112.913) rotate(180)" opacity="0.1"/>
  <path id="Path_328" data-name="Path 328" d="M104.177,111.162a.172.172,0,0,0,0,.025,1.239,1.239,0,0,0,.106.19l1.069,1.566,2.78.28.031-1.1A11.1,11.1,0,0,1,104.177,111.162Z" transform="translate(-26.12 -34.612)" opacity="0.1"/>
  <path id="Path_329" data-name="Path 329" d="M104.286,111.377s.143,6.271-1.427,7.127-2.179,5.315-2.179,5.315,4.755,3.127,5.815,4.5,3.494,4.654,2.993,5.438,1.214,4.35,1.214,4.35-3.138,6.417-2.425,8.842.783,8.839.783,8.839h1.357s-.428-5.275-.428-7.415,1.424-9.768,1.424-9.768.643-7.485,0-7.7-4.419-3.208-4.7-4.565,2-13.986,2-13.986A12.485,12.485,0,0,1,104.286,111.377Z" transform="translate(-25.857 -34.612)" fill="#f86d70"/>
  <path id="Path_330" data-name="Path 330" d="M94.018,134.476a6.1,6.1,0,0,0,.931,2.445l2.635-.448s7.913-1.785,9.547-1.93a10.2,10.2,0,0,0,2.864-.817,12.632,12.632,0,0,0-3.538-5.8l-1-.931a16.825,16.825,0,0,0-5.063-3.236c.117.1,8.419,7.186,6.6,8.576s-6.713-1.994-6.713-1.994l-5.566-4.783-.2-.173-.322.5a4.671,4.671,0,0,1,.478.229,8.19,8.19,0,0,1,3.916,4.867C99.727,134.823,94.018,134.476,94.018,134.476Z" transform="translate(-24.837 -34.612)" opacity="0.1"/>
  <path id="Path_331" data-name="Path 331" d="M92.306,152.3s5.275,2.923,6.557,1.284a2.18,2.18,0,0,1,1.606-.559c-.12-.369-.179-.615-.179-.615a20.011,20.011,0,0,0-7.589-1.1C92.46,151.91,92.306,152.3,92.306,152.3Z" transform="translate(-24.081 -34.612)" fill="#444053"/>
  <path id="Path_332" data-name="Path 332" d="M94.734,125.385l5.768,4.962s4.875,3.4,6.713,1.994-6.6-8.579-6.6-8.579h0a17.063,17.063,0,0,1,5.06,3.228l1,.931c2.641,2.448,3.236,2.448,3.326,6.045a5.055,5.055,0,0,1-.512,2.389c-.856.839-1.455,6.934-1.323,7.647s-1.594,6.87-1.035,8.582-6.993-.856-8.271.786-6.554-1.284-6.554-1.284,2.923-7.488,3.636-7.986,1.569-4.35,0-6.131a6.651,6.651,0,0,1-1.709-3.494s5.706.352,4.562-3.494a8.073,8.073,0,0,0-4.386-5.1Z" transform="translate(-24.593 -34.612)" fill="#e8e8f0"/>
  <path id="Path_333" data-name="Path 333" d="M102.432,138.006s-2.213,4.171-5.074,5.253c-.092.034-.182.064-.28.092C94.091,144.26,102.655,139.3,102.432,138.006Z" transform="translate(-24.759 -34.612)" opacity="0.1"/>
  <path id="Path_334" data-name="Path 334" d="M71.49,101.109a16.65,16.65,0,0,0,1.924,3.636c.856.926,7.2,10.2,7.2,10.2l.537,1.119.462.954,4.064-.428.28-1.639-.157-.19a19.2,19.2,0,0,0-2.268-2.378,26.277,26.277,0,0,1-2.78-3.063s-5.773-5.992-6.2-7.631-6.2-11.468-7.485-9.768S71.49,101.109,71.49,101.109Z" transform="translate(-19.6 -34.612)" fill="#fbbebe"/>
  <g id="Group_191" data-name="Group 191" transform="translate(54.584 73.224)" opacity="0.1">
    <path id="Path_335" data-name="Path 335" d="M83.282,145.2a3.186,3.186,0,0,0-1.435.207c-1.007.49-1.2,1.813-1.757,2.783a4.7,4.7,0,0,1-3.186,2.1,7.113,7.113,0,0,1-.772.106,8.767,8.767,0,0,0,2.45-.106,4.7,4.7,0,0,0,3.186-2.1c.559-.971.75-2.294,1.757-2.783a2.237,2.237,0,0,1,.839-.2Z" transform="translate(-76.133 -107.836)"/>
    <path id="Path_336" data-name="Path 336" d="M93.218,123.743c0-2.224,1.446-4.14,2.638-6.017s2.193-4.246,1.25-6.26c-.806-1.72-5.661-4.028-8.464-3.572,2.744.355,6.126,2.162,6.786,3.572.943,2.014-.059,4.383-1.25,6.26s-2.643,3.793-2.638,6.017a26.113,26.113,0,0,1-.982,7.807c-.227.8,1.958,2,1.622,2.758-1.136,2.517-.6,5.421-.786,8.173a3.4,3.4,0,0,1-.383,1.544,3.27,3.27,0,0,1-2.822,1.208h.976c1.3,0,2.85-.1,3.524-1.217a3.4,3.4,0,0,0,.383-1.544c.182-2.752-.35-5.659.786-8.173.341-.755-1.849-1.958-1.622-2.758A25.8,25.8,0,0,0,93.218,123.743Z" transform="translate(-76.133 -107.836)"/>
  </g>
  <path id="Path_337" data-name="Path 337" d="M81.151,116.054l.462.954,4.064-.428.28-1.639-.157-.19C85.366,114.963,82.119,116.527,81.151,116.054Z" transform="translate(-21.784 -34.612)" opacity="0.1"/>
  <path id="Path_338" data-name="Path 338" d="M96.158,126.775s-1-1.566-1.569-1.141-.792-1.284-1.119-1-1.281,1.08-1.678-.031c-.31-.884-3.689-6.475-5.06-8.724-.352-.582-.573-.94-.573-.94s-3.849,1.924-4.775,1.284v1.354l.783.073,4.2,7.832s1.32,2.1,1.231,2.834,1.692,3.941,1.978,4.154,3.357,3.779,3.357,3.779,1.569,7.7.213,9.84a14.6,14.6,0,0,1-3.706,3.706,11.966,11.966,0,0,0-.6,2.282c.1.215-.822,1.141-.394,1.427s1,2.28,1,2.28,2-3.208,3.077-3.706,2.461-7.06,2.461-7.06.394-3.866.425-6.361S95.3,126.775,96.158,126.775Z" transform="translate(-22.286 -34.612)" opacity="0.1"/>
  <path id="Path_339" data-name="Path 339" d="M95.942,126.775s-1-1.566-1.566-1.141-.794-1.284-1.119-1-1.278,1.08-1.678-.031c-.313-.884-3.692-6.475-5.06-8.724l-.573-.94s-3.849,1.924-4.778,1.284v1.354l.786.073,4.2,7.832s1.323,2.1,1.231,2.834,1.678,3.941,1.978,4.154,3.357,3.779,3.357,3.779,1.569,7.7.215,9.84a13.114,13.114,0,0,1-2.582,2.859,4.99,4.99,0,0,0-1.678,2.691,1.063,1.063,0,0,0-.05.448c.1.213-.822,1.141-.394,1.427s1,2.288,1,2.288,2-3.208,3.077-3.706,2.464-7.06,2.464-7.06.392-3.866.425-6.361S95.1,126.775,95.942,126.775Z" transform="translate(-22.243 -34.612)" fill="#f86d70"/>
  <path id="Path_340" data-name="Path 340" d="M86.175,159.217a14.341,14.341,0,0,1,4.2,1.424c1.2.864-4.562-1.354-4.562-1.354Z" transform="translate(-22.667 -34.612)" opacity="0.1"/>
  <path id="Path_341" data-name="Path 341" d="M93.377,166.808s3.124,2.6,2.565,4.957-2,8.271-2,8.271Z" transform="translate(-24 -34.612)" opacity="0.1"/>
  <path id="Path_342" data-name="Path 342" d="M66.052,161.8s-4.4.481-4.117,1.052,4.117-.526,4.117-.526Z" transform="translate(-11.748 -34.612)" opacity="0.1"/>
  <path id="Path_343" data-name="Path 343" d="M99.858,183.457s.28.355-1.354,0-.428-1.452-.428-1.452Z" transform="translate(-24.786 -34.612)" opacity="0.1"/>
  <path id="Path_344" data-name="Path 344" d="M99.3,188.377a10.405,10.405,0,0,1-3.438,0C94.661,188.022,99.3,188.377,99.3,188.377Z" transform="translate(-24.485 -34.612)" opacity="0.1"/>
  <path id="Path_345" data-name="Path 345" d="M94.695,207.627s-.392-.428-2.352.355-2.744.82-3.315.559S94.695,207.627,94.695,207.627Z" transform="translate(-23.321 -34.612)" opacity="0.1"/>
  <path id="Path_346" data-name="Path 346" d="M96.871,161.194l-2.78,3.868S95.587,161.675,96.871,161.194Z" transform="translate(-24.143 -34.612)" opacity="0.1"/>
  <path id="Path_347" data-name="Path 347" d="M91.467,125.634s-.12,1.284-1.913,1.785a4.9,4.9,0,0,0-2.134.906" transform="translate(-22.941 -34.612)" opacity="0.1"/>
  <path id="Path_348" data-name="Path 348" d="M86.807,116.328a7.674,7.674,0,0,1-4.836,1.323" transform="translate(-21.942 -34.612)" opacity="0.1"/>
  <path id="Path_349" data-name="Path 349" d="M88.608,152.263s.691.434,2.35-1.463" transform="translate(-23.085 -34.612)" opacity="0.1"/>
  <path id="Path_350" data-name="Path 350" d="M105.836,132.154a1.215,1.215,0,0,0-.4-.94l-.464-.559a2.153,2.153,0,0,0-.3-.313c-.28-.215-.638-.28-.929-.473" transform="translate(-25.929 -34.612)" opacity="0.1"/>
  <path id="Path_351" data-name="Path 351" d="M256.02,34.643s-23.549-1.421-20.78,15.082a4.01,4.01,0,0,0,2.092,4.24s.042-1.222,2.417-.806a11.049,11.049,0,0,0,2.559.123,5.331,5.331,0,0,0,3.127-1.292h0s6.621-2.736,9.194-13.555c0,0,1.9-2.361,1.829-2.968l-3.975,1.7s1.359,2.867.28,5.25c0,0-.129-5.147-.892-5.035-.154.025-2.064.993-2.064.993s2.336,4.993.573,8.624c0,0,.669-6.154-1.3-8.263l-2.8,1.634s2.73,5.158.878,9.368c0,0,.476-6.456-1.469-8.97l-2.534,1.978s2.565,5.085,1,8.576c0,0-.2-7.516-1.55-8.084a15.582,15.582,0,0,0-2.557,2.758s1.757,3.692.666,5.639c0,0-.669-5.007-1.217-5.035,0,0-2.21,3.317-2.439,5.594a12.053,12.053,0,0,1,1.9-5.908,6.659,6.659,0,0,0-3.385,1.751s.344-2.344,3.93-2.548c0,0,1.827-2.517,2.313-2.671,0,0-3.564-.3-5.726.66,0,0,1.9-2.213,6.38-1.206l2.5-2.045s-4.694-.641-6.685.067c0,0,2.291-1.958,7.359-.531l2.724-1.628A25,25,0,0,0,242,37.574s2.517-1.357,7.186.115l1.958-.876s-2.931-.576-3.79-.669-.9-.327-.9-.327a10.168,10.168,0,0,1,5.508.613S256.093,34.9,256.02,34.643Z" transform="translate(-53.484 -34.612)" fill="#2b1c81" opacity="0.1"/>
  <path id="Path_352" data-name="Path 352" d="M226.975,38.841s-10.629-.643-9.384,6.814a1.824,1.824,0,0,0,.943,1.919s.02-.559,1.094-.366a4.9,4.9,0,0,0,1.155.056,2.4,2.4,0,0,0,1.413-.585h0s2.993-1.234,4.157-6.123c0,0,.859-1.069.825-1.343l-1.8.766a3.221,3.221,0,0,1,.131,2.375s-.059-2.327-.4-2.271c-.07,0-.934.448-.934.448s1.057,2.257.26,3.9c0,0,.3-2.78-.59-3.734l-1.264.738s1.236,2.33.4,4.232c0,0,.215-2.917-.663-4.053l-1.144.9s1.158,2.3.453,3.874c0,0-.092-3.4-.7-3.65a7.015,7.015,0,0,0-1.155,1.248s.794,1.678.3,2.545c0,0-.3-2.263-.559-2.271a7.589,7.589,0,0,0-1.1,2.517,5.468,5.468,0,0,1,.862-2.671,3.01,3.01,0,0,0-1.53.792s.157-1.057,1.776-1.152a7.646,7.646,0,0,1,1.046-1.206,6.559,6.559,0,0,0-2.587.3,2.923,2.923,0,0,1,2.884-.559l1.119-.923a9.652,9.652,0,0,0-3.021.031s1.035-.884,3.326-.241l1.231-.736a11.061,11.061,0,0,0-2.887-.249,4.416,4.416,0,0,1,3.247.05l.881-.394s-1.326-.263-1.715-.3-.408-.148-.408-.148a4.585,4.585,0,0,1,2.489.28A11.287,11.287,0,0,0,226.975,38.841Z" transform="translate(-48.365 -34.612)" fill="#2b1c81" opacity="0.1"/>
  <ellipse id="Ellipse_129" data-name="Ellipse 129" cx="11.247" cy="1.902" rx="11.247" ry="1.902" transform="translate(195.613 178.223)" fill="#2b1c81"/>
  <path id="Path_353" data-name="Path 353" d="M268.756,211.627a3.256,3.256,0,0,0,1.071-1.62,1.444,1.444,0,0,0-.75-1.648c-.688-.263-1.424.215-1.98.7a2.644,2.644,0,0,1-1.924.929,2.937,2.937,0,0,0,.906-2.744,1.152,1.152,0,0,0-.252-.559c-.383-.408-1.074-.235-1.533.087-1.455,1.024-1.86,3-1.868,4.778a8.979,8.979,0,0,1-.025-1.958,2.017,2.017,0,0,0-.741-1.743,2.213,2.213,0,0,0-1.119-.263,2.323,2.323,0,0,0-1.827.52,1.8,1.8,0,0,0,.07,2.238,7.121,7.121,0,0,0,1.894,1.516,4.2,4.2,0,0,1,1.351,1.29,1.162,1.162,0,0,1,.1.232h4.1a11.4,11.4,0,0,0,2.526-1.751Z" transform="translate(-56.553 -34.612)" fill="#2b1c81"/>
</svg>
