<svg xmlns="http://www.w3.org/2000/svg" width="179.797" height="190" viewBox="0 0 179.797 190">
  <g id="undraw_completed_ngx6" transform="translate(8.482 0.001)">
    <circle id="Ellipse_132" data-name="Ellipse 132" cx="78.906" cy="78.906" r="78.906" transform="translate(13.504 26.686)" fill="#f2f2f2"/>
    <path id="Path_406" data-name="Path 406" d="M87.6,94.585a6.37,6.37,0,0,0,.843-3.229c0-2.919-1.807-5.285-4.037-5.285s-4.037,2.366-4.037,5.285a6.371,6.371,0,0,0,.843,3.229,6.61,6.61,0,0,0,0,6.459,6.61,6.61,0,0,0,0,6.459,6.61,6.61,0,0,0,0,6.459,6.37,6.37,0,0,0-.843,3.229c0,2.919,1.807,5.285,4.037,5.285s4.037-2.366,4.037-5.285a6.37,6.37,0,0,0-.843-3.229,6.61,6.61,0,0,0,0-6.459,6.61,6.61,0,0,0,0-6.459,6.61,6.61,0,0,0,0-6.459Z" transform="translate(-41.268 -2.946)" fill="#3f3d56"/>
    <ellipse id="Ellipse_133" data-name="Ellipse 133" cx="4.037" cy="5.285" rx="4.037" ry="5.285" transform="translate(39.101 76.666)" fill="#3f3d56"/>
    <ellipse id="Ellipse_134" data-name="Ellipse 134" cx="4.037" cy="5.285" rx="4.037" ry="5.285" transform="translate(39.101 70.207)" fill="#3f3d56"/>
    <path id="Path_407" data-name="Path 407" d="M99.518,34.237a19.38,19.38,0,0,0,1.5-2.213L90.415,30.282l11.472.085a19.37,19.37,0,0,0,.369-15.321L86.865,23.03,101.059,12.6A19.338,19.338,0,1,0,69.122,34.237a19.347,19.347,0,0,0-2.205,3.526l13.769,7.153L66,39.99a19.348,19.348,0,0,0,3.118,18.158,19.336,19.336,0,1,0,30.4,0,19.339,19.339,0,0,0,0-23.911Z" transform="translate(-41.268 -2.946)" fill="#2b1c81"/>
    <path id="Path_408" data-name="Path 408" d="M64.984,46.192a19.253,19.253,0,0,0,4.138,11.955,19.336,19.336,0,1,0,30.4,0C102.11,54.858,64.984,44.022,64.984,46.192Z" transform="translate(-41.268 -2.946)" opacity="0.1"/>
    <path id="Path_409" data-name="Path 409" d="M190.53,160.661c-5,17.83-43.613,34.368-84.671,22.845s-69.016-46.74-64.012-64.571,41.075-11.521,82.132,0S195.534,142.831,190.53,160.661Z" transform="translate(-41.268 -2.946)" fill="#3f3d56"/>
    <path id="Path_410" data-name="Path 410" d="M190.53,160.661c-5,17.83-43.613,34.368-84.671,22.845s-69.016-46.74-64.012-64.571,41.075-11.521,82.132,0S195.534,142.831,190.53,160.661Z" transform="translate(-41.268 -2.946)" opacity="0.1"/>
    <ellipse id="Ellipse_135" data-name="Ellipse 135" cx="33.532" cy="77.214" rx="33.532" ry="77.214" transform="translate(-8.482 148.274) rotate(-74.324)" fill="#3f3d56"/>
    <ellipse id="Ellipse_136" data-name="Ellipse 136" cx="22.635" cy="6.558" rx="22.635" ry="6.558" transform="translate(39.735 131.4)" opacity="0.1"/>
    <path id="Path_411" data-name="Path 411" d="M131.511,103.166l-28.629,28.629L90.849,119.762a4.113,4.113,0,0,0-5.817,0l-.432-.647c-1.606,1.606-1.174,4.857.432,6.464l15.612,15.612a3.139,3.139,0,0,0,4.437,0l32.243-32.209c1.607-1.606,2.19-4.55.584-6.157h0C136.3,101.22,133.117,101.56,131.511,103.166Z" transform="translate(-41.268 -2.946)" fill="#57b894"/>
    <path id="Path_412" data-name="Path 412" d="M131.511,103.166l-28.629,28.629L90.849,119.762a4.113,4.113,0,0,0-5.817,0l-.432-.647c-1.606,1.606-1.174,4.857.432,6.464l15.612,15.612a3.139,3.139,0,0,0,4.437,0l32.243-32.209c1.607-1.606,2.19-4.55.584-6.157h0C136.3,101.22,133.117,101.56,131.511,103.166Z" transform="translate(-41.268 -2.946)" opacity="0.1"/>
    <path id="Path_413" data-name="Path 413" d="M131.511,101.9l-28.629,28.629L90.849,118.492a4.113,4.113,0,0,0-5.817,0h0a4.113,4.113,0,0,0,0,5.817l15.612,15.612a3.138,3.138,0,0,0,4.437,0l32.243-32.209a4.112,4.112,0,0,0,0-5.817h0A4.112,4.112,0,0,0,131.511,101.9Z" transform="translate(-41.268 -2.946)" fill="#57b894"/>
    <path id="Path_414" data-name="Path 414" d="M145.452,150.63a9.287,9.287,0,0,0-3.84,2.3,8.437,8.437,0,0,1-3.712.768c-1.408-.256-3.968,2.3-1.92,3.072s14.594,2.816,14.85,2.176.256-7.169.256-7.169Z" transform="translate(-41.268 -2.946)" fill="#575a89"/>
    <path id="Path_415" data-name="Path 415" d="M165.564,149.531a9.287,9.287,0,0,0-3.39,2.926,8.437,8.437,0,0,1-3.527,1.391c-1.431-.012-3.517,2.948-1.367,3.355s14.86.282,15-.392-.972-7.107-.972-7.107Z" transform="translate(-41.268 -2.946)" fill="#575a89"/>
    <circle id="Ellipse_137" data-name="Ellipse 137" cx="5.761" cy="5.761" r="5.761" transform="translate(102.583 48.281)" fill="#ffb9b9"/>
    <path id="Path_416" data-name="Path 416" d="M154.285,57.947s.64,4.352,1.792,4.865a8.505,8.505,0,0,1,2.176,1.536l-3.2,1.536L148.78,65.5s.512-2.816-.384-4.224S154.285,57.947,154.285,57.947Z" transform="translate(-41.268 -2.946)" fill="#ffb9b9"/>
    <path id="Path_417" data-name="Path 417" d="M166.19,78.558s2.944,7.553,0,14.85-4.224,8.449-4.224,8.449l-.9-9.6,1.03-.935a12.155,12.155,0,0,0,.117-4.637c-.507-1.725.261-7.1.261-7.1Z" transform="translate(-41.268 -2.946)" fill="#ffb9b9"/>
    <path id="Path_418" data-name="Path 418" d="M144.172,94.944s-3.712,8.449-3.328,12.545,3.328,21.378,3.328,21.378-.384,22.274.768,22.274,6.657,2.048,6.657.64,1.152-35.2,1.152-35.2,6.529,14.85,7.169,16,4.737,19.2,6.145,19.2,5.761-1.28,5.377-2.176-4.737-20.866-7.169-25.987-1.92-24.451-1.92-24.451l-4.1-8.961Z" transform="translate(-41.268 -2.946)" fill="#2f2e41"/>
    <path id="Path_419" data-name="Path 419" d="M147.884,54.363s-3.584-.256-3.84-1.152-.768-1.664-.512-1.664.384-.64.384-.64.256-.128.384,0,.256-.9.256-.9.128-.384.256-.128.128.128.256-.256.768-.64.768-.64,2.432.128,2.816-.384,4.737-.128,5.633.512,4.865,2.944,4.224,4.865-2.944,6.145-2.944,6.785-.9.512-1.152-.128-2.3-1.408-2.3-1.792-1.152-3.968-1.792-3.712-1.408,2.3-1.664,1.92A18.292,18.292,0,0,1,147.884,54.363Z" transform="translate(-41.268 -2.946)" fill="#3f3d56"/>
    <path id="Path_420" data-name="Path 420" d="M165.55,71.9s-5.249-7.681-6.785-8.065-4.993-1.408-4.993-1.408a25.181,25.181,0,0,0-4.48,1.024c-1.024.512-4.865,1.408-4.993,2.944s1.024,16.258.384,17.666-2.816,14.85-1.792,14.594.256-3.584,4.737-3.712,6.913-2.816,8.577.384,6.4,5.633,6.4,5.633a30.976,30.976,0,0,1,.512-3.072c.384-1.792-1.024-6.145-1.024-6.145s.128-10.113.64-11.265S165.55,71.9,165.55,71.9Z" transform="translate(-41.268 -2.946)" fill="#575a89"/>
    <path id="Path_421" data-name="Path 421" d="M163.63,71.645l1.92.256s-.128,2.56.384,3.328,1.408,4.737.9,4.865-5.121.9-5.121.9l-.256-5.889Z" transform="translate(-41.268 -2.946)" fill="#575a89"/>
    <path id="Path_422" data-name="Path 422" d="M142.892,76.253s-1.28,8.321-1.92,9.345-3.84,15.362-3.84,15.362-5.263,7.319-2.7,7.191,5.263-6.679,5.263-6.679,7.937-14.466,7.937-16,1.92-9.217,1.92-9.217Z" transform="translate(-41.268 -2.946)" fill="#ffb9b9"/>
    <path id="Path_423" data-name="Path 423" d="M146.6,64.988l-2.3.9s-2.944,10.5-2.3,11.393,8.321-.384,8.449-.768S149.037,64.988,146.6,64.988Z" transform="translate(-41.268 -2.946)" fill="#575a89"/>
    <path id="Path_424" data-name="Path 424" d="M43.678,91.962c0,8.921,5.6,16.14,12.513,16.14" transform="translate(-41.268 -2.946)" fill="#3f3d56"/>
    <path id="Path_425" data-name="Path 425" d="M56.191,108.1c0-9.021,6.245-16.321,13.963-16.321" transform="translate(-41.268 -2.946)" fill="#2b1c81"/>
    <path id="Path_426" data-name="Path 426" d="M48.212,92.771c0,8.474,3.569,15.331,7.979,15.331" transform="translate(-41.268 -2.946)" fill="#2b1c81"/>
    <path id="Path_427" data-name="Path 427" d="M56.191,108.1c0-11.527,7.219-20.854,16.139-20.854" transform="translate(-41.268 -2.946)" fill="#3f3d56"/>
    <path id="Path_428" data-name="Path 428" d="M53.559,108.215a6.5,6.5,0,0,0,2.309-.435c.535-.381,2.73-.836,2.862-.225s2.667,3.038.663,3.054a16.968,16.968,0,0,1-5.189-.637C53.671,109.646,53.559,108.215,53.559,108.215Z" transform="translate(-41.268 -2.946)" fill="#a8a8a8"/>
    <path id="Path_429" data-name="Path 429" d="M59.429,110.4a16.969,16.969,0,0,1-5.189-.637c-.406-.248-.568-1.136-.623-1.546l-.059,0s.112,1.431.646,1.756a16.969,16.969,0,0,0,5.189.637c.578,0,.778-.21.767-.515C60.08,110.278,59.86,110.393,59.429,110.4Z" transform="translate(-41.268 -2.946)" opacity="0.2"/>
  </g>
</svg>
