<svg xmlns="http://www.w3.org/2000/svg" width="620" height="622.114" viewBox="0 0 620 622.114">
  <g id="illustration" transform="translate(0 -60)">
    <path id="Path_234" data-name="Path 234" d="M892.882,744.557c0,25.68-138.79,46.5-310,46.5s-310-20.82-310-46.5c0-18.18,69.57-33.93,170.96-41.57,41.81-3.16,89.05-4.93,139.04-4.93,20.55,0,40.63.3,60.05.87C785.4,703.127,892.882,721.957,892.882,744.557Z" transform="translate(-272.882 -108.943)" fill="#3f3d56"/>
    <ellipse id="Ellipse_114" data-name="Ellipse 114" cx="119" cy="14.5" rx="119" ry="14.5" transform="translate(151 616.114)" opacity="0.1"/>
    <ellipse id="Ellipse_115" data-name="Ellipse 115" cx="112.5" cy="120" rx="112.5" ry="120" transform="translate(157 401.114)" fill="#3f3d56"/>
    <rect id="Rectangle_290" data-name="Rectangle 290" width="70" height="64" transform="translate(235 592.114)" fill="#2b1c81"/>
    <path id="Path_235" data-name="Path 235" d="M396.5,607.614l-4,22,26,4,17-10-1-16Z" fill="#575a89"/>
    <path id="Path_236" data-name="Path 236" d="M538.382,303.557s-2,23-7,24,11,41,11,41h24l19-5-9-22s-12-16-3-29S538.382,303.557,538.382,303.557Z" transform="translate(-272.882 -108.943)" fill="#a0616a"/>
    <path id="Path_237" data-name="Path 237" d="M538.382,303.557s-2,23-7,24,11,41,11,41h24l19-5-9-22s-12-16-3-29S538.382,303.557,538.382,303.557Z" transform="translate(-272.882 -108.943)" opacity="0.1"/>
    <path id="Path_238" data-name="Path 238" d="M488.382,479.557s-26,50-5,60,26,9,26,12-4,2-2,7-4,25,2,37,4,21,4,21,0,1,2,5,3,7,2,9-7,15-1,18,37,5,40,0-3-8,0-11,5-4,3-6-4-27-4-27,5-29,3-33-5-8-3-11,4-2,5-6,3-13,3-13l11-1,26,5s29,32,61,42c0,0,9,9,12,9s3,0,2,2-4,2-2,4,5-1,3,2-4,3-2,5-1,13-1,14-9,95-6,97,45,8,48,0-2-18-2-18,15-120,11-128-18-44-93-67c0,0-21-4-21-7s-2-22-6-23-27-2-27-2l-29,9-40-7Z" transform="translate(-272.882 -108.943)" fill="#2f2e41"/>
    <path id="Path_239" data-name="Path 239" d="M523.382,647.557l-5,18s-4,29,1,36c3.927,5.5,10.94,12.231,23.945,13.412A16.071,16.071,0,0,0,560.1,703.852a5.006,5.006,0,0,0,.277-1.294c0-2-3-26-3-26l-5-25-1-7Z" transform="translate(-272.882 -108.943)" fill="#2f2e41"/>
    <path id="Path_240" data-name="Path 240" d="M669.382,733.557s-5-5-6,0-5,26,2,27,74,11,81,7,20-10,12-13-31-12-31-12-13-17-15-18-13,1-18,5S669.382,733.557,669.382,733.557Z" transform="translate(-272.882 -108.943)" fill="#2f2e41"/>
    <circle id="Ellipse_116" data-name="Ellipse 116" cx="31" cy="31" r="31" transform="translate(258.5 153.614)" fill="#a0616a"/>
    <path id="Path_241" data-name="Path 241" d="M559.382,363.557l-12-13-13.3-26s-9.7-3-11.7,2-38,21-38,21,9,84,5,92-11,40-5,43,34,0,43,4,35,4,42-1,9-9,16-6c5.959,2.554,19.891-84.761,23.9-110.781a11.844,11.844,0,0,0-4.908-11.51c-8.973-6.294-25.133-17.14-27.994-15.709C572.382,343.557,559.382,363.557,559.382,363.557Z" transform="translate(-272.882 -108.943)" fill="#575a89"/>
    <path id="Path_242" data-name="Path 242" d="M602.382,359.557h0a11.86,11.86,0,0,1,8.911,10.2l8.089,72.8s-20,43-30,14S602.382,359.557,602.382,359.557Z" transform="translate(-272.882 -108.943)" fill="#575a89"/>
    <path id="Path_243" data-name="Path 243" d="M600.382,449.557l22-6s4,28,8,28-14,16-23,14-22-9-23-14,9-26,9-26Z" transform="translate(-272.882 -108.943)" fill="#575a89"/>
    <path id="Path_244" data-name="Path 244" d="M538.98,306.93c2.108-4.648,1.742-10.07,3.485-14.866a17.727,17.727,0,0,1,26.953-8.381c2.242,1.6,4.489,3.844,7.226,3.539,2.947-.329,5.575-3.616,8.284-2.411,3,1.335,2.192,6.717,5.234,7.96,1.6.654,3.494-.353,4.417-1.816a11.225,11.225,0,0,0,1.286-4.976c.42-4.265.8-8.779-1.051-12.645a30.286,30.286,0,0,1-2.028-4.09,13.994,13.994,0,0,1-.386-4.034c-.017-5.013-.383-10.242-2.906-14.574-2.8-4.807-7.974-7.881-13.373-9.222s-11.055-1.136-16.6-.666c-9.163.776-18.719,2.439-25.939,8.135a10.148,10.148,0,0,0-2.493,2.62,13.525,13.525,0,0,0-1.328,3.841A79.449,79.449,0,0,1,522.8,273.62a39.653,39.653,0,0,0-3.6,7.765c-.766,2.754-.714,5.893.889,8.261,1.3,1.927,3.391,2.955,5.029,4.53,1.624,1.561,2.384,4.564,4.182,5.747,1.57,1.032,3.451.3,5.053,1.4C536.41,302.725,536.558,305.8,538.98,306.93Z" transform="translate(-272.882 -108.943)" fill="#2f2e41"/>
    <path id="Path_245" data-name="Path 245" d="M564.382,378.557l3-6s44,13,53,25c0,0,22-14,34-12l12,2-37,33-47-4Z" transform="translate(-272.882 -108.943)" fill="#f2f2f2"/>
    <path id="Path_246" data-name="Path 246" d="M562.382,372.557l-41,57,59,29s5.516,3,9.758,0l39.242-18,37-53-37,19s-4-8-12-4Z" transform="translate(-272.882 -108.943)" fill="#2b1c81"/>
    <path id="Path_247" data-name="Path 247" d="M625.382,473.557l8-21s18-23,8-34-21,32-21,32Z" transform="translate(-272.882 -108.943)" fill="#a0616a"/>
    <path id="Path_248" data-name="Path 248" d="M533.079,470.206l17.456-14.152s27.11-10.865,23.979-25.4S540.293,447.8,540.293,447.8Z" transform="translate(-272.882 -108.943)" fill="#a0616a"/>
    <path id="Path_249" data-name="Path 249" d="M489.882,369.057h-1s-15.5-18.5-18.5,6.5-13,108,13,111,44.5-12.5,44.5-12.5,19-29,12-29c-3.387,0-12.6-1.521-21-1-8.963.556-17.016,3.081-16.5.5C503.382,439.557,517.882,376.057,489.882,369.057Z" transform="translate(-272.882 -108.943)" opacity="0.1"/>
    <path id="Path_250" data-name="Path 250" d="M488.382,349.557l-4-2s-16,3-19,28-13,108,13,111,61-4,61-4,7-38,0-38-43,5-42,0S516.382,356.557,488.382,349.557Z" transform="translate(-272.882 -108.943)" fill="#575a89"/>
    <path id="Path_251" data-name="Path 251" d="M338,353.114l11.027-16.9,6.973,27.9-18,8Z" fill="#575a89"/>
    <circle id="Ellipse_117" data-name="Ellipse 117" cx="27" cy="27" r="27" transform="translate(118.473 89.113)" fill="#f2f2f2"/>
    <rect id="Rectangle_291" data-name="Rectangle 291" width="64" height="64" transform="translate(79.473 286.114)" fill="#f2f2f2"/>
    <path id="Path_252" data-name="Path 252" d="M372,0l16.2,28.057,16.2,28.057H339.6l16.2-28.057Z" transform="translate(10 60)" fill="#f2f2f2"/>
    <path id="Path_253" data-name="Path 253" d="M927.118,277.172q-.581,17.955-8.745,28.784t-19.4,10.83q-9.152,0-16.042-10.6t-6.892-32.606q0-4.865.232-9.266t.579-8.34l4.054-38.108H854.145q-6.949,72.278-11.409,86T827.62,317.6a12.78,12.78,0,0,1-8.572-3.591,12.064,12.064,0,0,1-4.054-9.5q0-5.326,8.4-14.884t9.324-17.432l6.95-54.324H828.432a19.911,19.911,0,0,0-9.093,2.259,17.156,17.156,0,0,0-6.544,5.27l-4.981,7.413h-4.055q5.674-17.605,13.958-26.467t19.054-8.861h88.495v20.386H895.381q-1.39,13.9-2.143,27.8t-.753,27.915q0,9.5,4.4,15.405t11,5.907q4.053,0,8.513-3.3a11.97,11.97,0,0,0,5.039-8.629q.348-2.547.521-4t.174-1.8Z" transform="translate(-315.882 -108.943)" fill="#2b1c81"/>
    <path id="Path_254" data-name="Path 254" d="M927.118,277.172q-.581,17.955-8.745,28.784t-19.4,10.83q-9.152,0-16.042-10.6t-6.892-32.606q0-4.865.232-9.266t.579-8.34l4.054-38.108H854.145q-6.949,72.278-11.409,86T827.62,317.6a12.78,12.78,0,0,1-8.572-3.591,12.064,12.064,0,0,1-4.054-9.5q0-5.326,8.4-14.884t9.324-17.432l6.95-54.324H828.432a19.911,19.911,0,0,0-9.093,2.259,17.156,17.156,0,0,0-6.544,5.27l-4.981,7.413h-4.055q5.674-17.605,13.958-26.467t19.054-8.861h88.495v20.386H895.381q-1.39,13.9-2.143,27.8t-.753,27.915q0,9.5,4.4,15.405t11,5.907q4.053,0,8.513-3.3a11.97,11.97,0,0,0,5.039-8.629q.348-2.547.521-4t.174-1.8Z" transform="translate(-315.882 -108.943)" opacity="0.1"/>
    <path id="Path_255" data-name="Path 255" d="M927.118,273.553q-.581,17.955-8.745,28.784t-19.4,10.83q-9.152,0-16.042-10.6t-6.892-32.606q0-4.865.232-9.266t.579-8.34l4.054-38.108H854.145q-6.949,72.278-11.409,86T827.62,313.978a12.78,12.78,0,0,1-8.572-3.591,12.064,12.064,0,0,1-4.054-9.5q0-5.326,8.4-14.884t9.324-17.432l6.95-54.324H828.432a19.911,19.911,0,0,0-9.093,2.258,17.156,17.156,0,0,0-6.544,5.27l-4.981,7.413h-4.055q5.674-17.605,13.958-26.467t19.054-8.861h88.495v20.386H895.381q-1.39,13.9-2.143,27.8t-.753,27.915q0,9.5,4.4,15.405t11,5.907q4.053,0,8.513-3.3a11.97,11.97,0,0,0,5.039-8.629q.348-2.547.521-4t.174-1.8Z" transform="translate(-315.882 -108.943)" fill="#2b1c81"/>
  </g>
</svg>
