<svg id="undraw_in_progress_ql66" xmlns="http://www.w3.org/2000/svg" xmlns:xlink="http://www.w3.org/1999/xlink" width="255.635" height="190" viewBox="0 0 255.635 190">
  <defs>
    <linearGradient id="linear-gradient" x1="0.5" y1="1" x2="0.5" gradientUnits="objectBoundingBox">
      <stop offset="0" stop-color="gray" stop-opacity="0.251"/>
      <stop offset="0.54" stop-color="gray" stop-opacity="0.122"/>
      <stop offset="1" stop-color="gray" stop-opacity="0.102"/>
    </linearGradient>
  </defs>
  <path id="Path_354" data-name="Path 354" d="M172.639,45.579c-16.388-.423-32-4.353-46.9-8.652S96.071,27.854,80.075,25.575C69.787,24.109,58.02,23.9,49.732,28c-7.979,3.94-10.557,10.742-11.942,17.072-1.043,4.753-1.656,9.754,1.2,14.2,1.985,3.089,5.5,5.685,7.941,8.645,8.475,10.3,2.484,22.99-6.7,33.042-4.3,4.715-9.306,9.212-12.631,14.233s-4.862,10.769-1.952,15.892c2.882,5.064,9.751,8.885,17.194,11.567,15.115,5.447,32.918,7,50.292,7.888,38.446,1.955,77.095,1.107,115.642.253,14.266-.314,28.593-.631,42.627-2.279,7.794-.909,15.839-2.355,21.5-5.842,7.181-4.426,8.961-11.922,4.148-17.472-8.073-9.311-30.386-11.625-36.036-21.617-3.1-5.5.084-11.625,4.6-16.728,9.683-10.942,25.912-20.541,26.765-33.05.587-8.589-7.214-17.194-19.278-21.258-12.643-4.259-30.179-3.725-39.5,3.327C203.99,43.148,187.111,45.944,172.639,45.579Z" transform="translate(-24.113 -18.953)" fill="#2b1c81" opacity="0.1"/>
  <g id="Group_193" data-name="Group 193" transform="translate(183.602)" opacity="0.8">
    <path id="Path_355" data-name="Path 355" d="M261.828,64.211s-2.856-1.16-11.942,3.008-10.22,3.639-12.572,3-3.664-.788-6.186-4.267c0,0-1.773-9.64-3.5-11.142s-9.035.853-9.035.853-8.766,2.016-10.448-9.706c0,0,1.185-8.832-.43-11.544,0,0,3.261,1.405,8.64-.863S226.038,36,226.038,36s1.357,3.512,1.215,5.6.717,2.882,3.292,1.869c0,0,1.266-1.793-.524-4.755s-3.059-5.171-2.56-7.472a9.287,9.287,0,0,1,6.531-7.09c4.6-1.6,10.853-1.9,13.854-3.135s3.725-2.064,3.725-2.064-1.846,1.851,2.5,9.691,1.578,11.245,1.578,11.245-2.314,5.515-12.529,5.064c0,0-9.843.36-4.477,4.533,0,0,3.436-.7,8.577-2.332s8.845,5.107,9.767,9.8A12.3,12.3,0,0,0,261.828,64.211Z" transform="translate(-207.715 -18.953)" fill="#2b1c81"/>
    <path id="Path_356" data-name="Path 356" d="M248.6,24.889l.053-.015c.4,1.5-4,7.508-7.764,12.289l-.043-.033C246.149,30.386,248.914,26.038,248.6,24.889Z" transform="translate(-207.715 -18.953)" fill="#444053"/>
    <path id="Path_357" data-name="Path 357" d="M240.922,37.031l.023.061c-3,3.819-6.781,8.376-9.8,11.752-.289.322-.575.658-.848,1.013l-.089-.068c.279-.347.565-.686.853-1.013C234.08,45.394,237.922,40.847,240.922,37.031Z" transform="translate(-207.715 -18.953)" fill="#444053"/>
    <path id="Path_358" data-name="Path 358" d="M230.277,49.687l.061.1c-5.5,6.87-5.867,17.535-5.88,17.629L223.3,66.09C223.311,65.984,224.737,56.6,230.277,49.687Z" transform="translate(-207.715 -18.953)" fill="#444053"/>
    <path id="Path_359" data-name="Path 359" d="M255.449,60.486s-6.487-3.373-11.544-2.162-16.439-4.279-16.439-4.279-4.834-1.962-5.806-4.2c0,0-3.315-3.507-3.5-5.318s-3.426-6.379-5.523-6.543" transform="translate(-207.715 -18.953)" fill="none" stroke="#444053" stroke-miterlimit="10" stroke-width="0.253"/>
    <path id="Path_360" data-name="Path 360" d="M254.51,63.733s-3.267-2.2-2.887-4.768" transform="translate(-207.715 -18.953)" fill="none" stroke="#444053" stroke-miterlimit="10" stroke-width="0.253"/>
    <path id="Path_361" data-name="Path 361" d="M249.5,66.576s-4.674-1.7-5.143-8.356" transform="translate(-207.715 -18.953)" fill="none" stroke="#444053" stroke-miterlimit="10" stroke-width="0.253"/>
    <path id="Path_362" data-name="Path 362" d="M241.958,68.3a10.454,10.454,0,0,1-2.983-10.179" transform="translate(-207.715 -18.953)" fill="none" stroke="#444053" stroke-miterlimit="10" stroke-width="0.253"/>
    <path id="Path_363" data-name="Path 363" d="M232.9,66.488s-2.973-6.237-.327-10.293" transform="translate(-207.715 -18.953)" fill="none" stroke="#444053" stroke-miterlimit="10" stroke-width="0.253"/>
    <path id="Path_364" data-name="Path 364" d="M255.525,56.374s-3.38,1.074-2.654,2.851" transform="translate(-207.715 -18.953)" fill="none" stroke="#444053" stroke-miterlimit="10" stroke-width="0.253"/>
    <path id="Path_365" data-name="Path 365" d="M251.446,50.241s-4.522,1.433-4.629,7.832" transform="translate(-207.715 -18.953)" fill="none" stroke="#444053" stroke-miterlimit="10" stroke-width="0.253"/>
    <path id="Path_366" data-name="Path 366" d="M245.141,48.765s-4.115,5.08-3.824,9.7" transform="translate(-207.715 -18.953)" fill="none" stroke="#444053" stroke-miterlimit="10" stroke-width="0.253"/>
    <path id="Path_367" data-name="Path 367" d="M237.934,50.758s-4.089,3.907-3.568,6.077" transform="translate(-207.715 -18.953)" fill="none" stroke="#444053" stroke-miterlimit="10" stroke-width="0.253"/>
    <path id="Path_368" data-name="Path 368" d="M235.468,49.378s-3.834.686-4.368-.572" transform="translate(-207.715 -18.953)" fill="none" stroke="#444053" stroke-miterlimit="10" stroke-width="0.253"/>
    <path id="Path_369" data-name="Path 369" d="M230.487,44.749s1.937,2.565,2.436,1.99" transform="translate(-207.715 -18.953)" fill="none" stroke="#444053" stroke-miterlimit="10" stroke-width="0.253"/>
    <path id="Path_370" data-name="Path 370" d="M249.686,43.126s-9.663.7-11.848-2.211" transform="translate(-207.715 -18.953)" fill="none" stroke="#444053" stroke-miterlimit="10" stroke-width="0.253"/>
    <path id="Path_371" data-name="Path 371" d="M228.454,31.825s4.535,9.731,7.827,10.972" transform="translate(-207.715 -18.953)" fill="none" stroke="#444053" stroke-miterlimit="10" stroke-width="0.253"/>
    <path id="Path_372" data-name="Path 372" d="M233.214,27.188s2.785,8.951,6.234,11.747" transform="translate(-207.715 -18.953)" fill="none" stroke="#444053" stroke-miterlimit="10" stroke-width="0.253"/>
    <path id="Path_373" data-name="Path 373" d="M253.753,35.739s-7.343,3.153-11.759-.038" transform="translate(-207.715 -18.953)" fill="none" stroke="#444053" stroke-miterlimit="10" stroke-width="0.19"/>
    <path id="Path_374" data-name="Path 374" d="M239.757,25.279s1.679,6.584,3.94,8.171" transform="translate(-207.715 -18.953)" fill="none" stroke="#444053" stroke-miterlimit="10" stroke-width="0.19"/>
    <path id="Path_375" data-name="Path 375" d="M252.644,28.36s-4.13,1.562-5.672.365" transform="translate(-207.715 -18.953)" fill="none" stroke="#444053" stroke-miterlimit="10" stroke-width="0.19"/>
    <path id="Path_376" data-name="Path 376" d="M226.95,46.9s0,5.735-1.562,6.143" transform="translate(-207.715 -18.953)" fill="none" stroke="#444053" stroke-miterlimit="10" stroke-width="0.253"/>
    <path id="Path_377" data-name="Path 377" d="M214.182,54.331s6.2.532,9.063-2.669" transform="translate(-207.715 -18.953)" fill="none" stroke="#444053" stroke-miterlimit="10" stroke-width="0.253"/>
    <path id="Path_378" data-name="Path 378" d="M225.349,40.122s-1.5,5.824-5.639,7.384" transform="translate(-207.715 -18.953)" fill="none" stroke="#444053" stroke-miterlimit="10" stroke-width="0.253"/>
    <path id="Path_379" data-name="Path 379" d="M210.463,48.2a8.139,8.139,0,0,0,8.166-2.36" transform="translate(-207.715 -18.953)" fill="none" stroke="#444053" stroke-miterlimit="10" stroke-width="0.253"/>
    <path id="Path_380" data-name="Path 380" d="M220.47,35.121s-.415,4.94-3.1,7.252" transform="translate(-207.715 -18.953)" fill="none" stroke="#444053" stroke-miterlimit="10" stroke-width="0.253"/>
    <path id="Path_381" data-name="Path 381" d="M210.63,40.674s3.644.023,4.5-1.162" transform="translate(-207.715 -18.953)" fill="none" stroke="#444053" stroke-miterlimit="10" stroke-width="0.253"/>
  </g>
  <ellipse id="Ellipse_130" data-name="Ellipse 130" cx="55.202" cy="3.925" rx="55.202" ry="3.925" transform="translate(11.363 182.15)" fill="#2b1c81" opacity="0.1"/>
  <path id="Path_382" data-name="Path 382" d="M122.657,183.659c.76-1.365,1.669-2.651,2.4-4.034.671-1.266,1.2-2.608,1.8-3.91,1.036-2.228,2.312-4.335,3.474-6.5a8.39,8.39,0,0,0,1.347-4.573c-.139-1.519-1.031-2.836-1.375-4.3-1.4-6.029-4.778-11.564-6.837-17.4-.527-1.479-1.038-2.968-1.7-4.4a46.555,46.555,0,0,0-4.811-7.665,21.647,21.647,0,0,0-2.127-2.644c-.636-.636-1.35-1.2-1.927-1.884-1.19-1.418-1.747-3.459-3.236-4.558-.025.066-.053.129-.081.195-1.066-2.722-4.641-4.517-6.715-6.774a39.868,39.868,0,0,1-3.325-4.368l-4.515-6.525a10.964,10.964,0,0,1-1.884-3.618c-.385-1.616-.028-3.337-.408-4.953a6.247,6.247,0,0,0-1.38-2.623c.043-.013.089-.03.134-.041.861-.23,1.773-.271,2.626-.476,1.861-.443,3.479-1.633,5.333-2.109a13.007,13.007,0,0,0,2.816-.76,2.34,2.34,0,0,0,1.089-2.487c-.6-3.178,1.076-6.4.793-9.622-.076-.891-.3-1.76-.451-2.644a28.025,28.025,0,0,1-.157-6.234,13.168,13.168,0,0,1,2.064-2.565,17.005,17.005,0,0,0,3.292-3.4,6.632,6.632,0,0,0,.684-4.082,3.938,3.938,0,0,0-1.266-2.694,3.183,3.183,0,0,0-2.907-.339c-.134.043-.266.1-.4.152a3.32,3.32,0,0,0-2.618-.152,7.934,7.934,0,0,0-2.563,1.616,5.857,5.857,0,0,0-1.2,1.266,7.508,7.508,0,0,0-.815,2.59,25.322,25.322,0,0,1-1.709,5.011c-.137.284-.506.793-.805,1.279l-.542-.111c-.235,2.256-2.125,3.912-3.274,5.862-.56.947-.952,1.983-1.456,2.963a28.719,28.719,0,0,1-1.922,3.082q-1.026,1.519-2.054,3.011a42.793,42.793,0,0,1-2.785,3.768c-.929-.076-1.859-.144-2.785-.16a22.609,22.609,0,0,0-4.636.413,12.914,12.914,0,0,1-.165-1.623v-.1c0-.132.015-.289.033-.458a9.369,9.369,0,0,0-.448-15.851,6.813,6.813,0,0,0,.1-.861v-.506a1.194,1.194,0,0,0-.018-.253,3.348,3.348,0,0,0-.086-.506c-.02-.081-.043-.162-.071-.253a2.393,2.393,0,0,0-.21-.456.217.217,0,0,0-.018-.025c-.033-.053-.066-.106-.1-.157s-.033-.041-.048-.061a1.212,1.212,0,0,0-.086-.106l-.063-.066c-.028-.03-.056-.061-.086-.089l-.071-.063-.089-.078-.081-.061-.091-.068-.089-.058-.091-.058c-.03-.02-.063-.038-.1-.056l-.094-.053-.1-.051-.094-.046-.111-.048-.091-.041-.122-.046-.086-.033-.132-.046-.078-.025-.144-.046-.068-.02L72.7,63.95l-.061-.018-.165-.041-.048-.013-.182-.041h-.03l-.268-.058q-1.664-.342-3.348-.59a7.541,7.541,0,0,0-2.768-.048,19.165,19.165,0,0,0-3.464,1.648,23.287,23.287,0,0,1-4.391,1.129,6.667,6.667,0,0,0-3.915,2.135,7.454,7.454,0,0,0-1.2,3.236c-1.752,9.531.137,19.308.494,29,.139,3.77-.03,7.8-2.168,10.888l6.224-.165c.3,0,.6-.018.9-.035s.608-.041.907-.076a6,6,0,0,0,2.256-.676,3.892,3.892,0,0,0,.879-.684,8.757,8.757,0,0,0,1.709-3.254c.139-.392.279-.79.4-1.19.051-.167.1-.334.142-.506l.02-.081.071.033a15.666,15.666,0,0,0,.843,1.393,30.172,30.172,0,0,0,3.831,4.327c2.717,2.7,5.495,5.442,8.9,7.174a10.694,10.694,0,0,1,3.269,2.026c.43.463.8,1.058,1.413,1.218a7.028,7.028,0,0,1,1.16.162c.532.223.727.863.972,1.39s.8,1.064,1.327.823a2.661,2.661,0,0,0,.993,2.641,1.94,1.94,0,0,1,.643.577,2.1,2.1,0,0,1,.132.679,2.682,2.682,0,0,0,.96,1.643c-.494.818-.1,1.99-.086,3.011a11.323,11.323,0,0,1-.474,2.514,18.513,18.513,0,0,0,.2,7.465,8.111,8.111,0,0,0,1.461,3.824c.289.342.633.638.937.97a9.015,9.015,0,0,1,1.431,2.18,17.092,17.092,0,0,1,1.552,4.973,9.055,9.055,0,0,0,.734,2.507c.555,1.21.048,2.7.544,3.935a11.422,11.422,0,0,1,.775,1.608,7.32,7.32,0,0,1-.372,2.545c-.289,2.011,1.162,3.877,1.294,5.9a.466.466,0,0,1-.071.342c-.1.111-.268.109-.4.172-.253.122-.322.463-.4.747s-.309.605-.59.519c-4.16,2.226-8.468,4.282-12.628,6.508l-1.9,1.013-10.157,5.426a.734.734,0,0,0-.408.663c0,.122.015.253.025.367-.712.177-1.4.39-1.881.479-.2.038-.4.076-.6.119a.638.638,0,0,0,.091-.253.506.506,0,0,0-.448-.506,1.624,1.624,0,0,0-.732.1,10.678,10.678,0,0,1-1.773.327,12.649,12.649,0,0,0-2.124.253,2.415,2.415,0,0,0-1.646,1.266,3.071,3.071,0,0,0-.182,1.2,18.3,18.3,0,0,0,.552,4.644.4.4,0,0,0,.185.3c.089.035.195,0,.284.04a.38.38,0,0,1,.165.208,10.413,10.413,0,0,1,.638,3.1q.253,2.342.641,4.672a5.185,5.185,0,0,0,.929,2.552,4.169,4.169,0,0,0,2.664,1.231,18.589,18.589,0,0,0,6.26-.575,1.834,1.834,0,0,0,1.056-.479,1.193,1.193,0,0,0,.253-.843c-.048-1.041-1-1.773-1.856-2.357l-1.175-.813a.506.506,0,0,1-.253-.572l.076-1.537h-.228a5.522,5.522,0,0,1,1.459-2.869c.549-.506,1.266-.861,1.841-1.322a4.558,4.558,0,0,0,2.56.939,20.864,20.864,0,0,1,5.8-4.811,56.723,56.723,0,0,1,5.381-3q2.243-1.109,4.558-2.079c2.178-.917,4.4-1.735,6.617-2.532a26.643,26.643,0,0,0,4.34-1.841c3.545-2.049,6.049-6.138,5.571-10.233-.6-5.166.686-10.549.6-15.75a15.61,15.61,0,0,0-.542-4.495,2.4,2.4,0,0,1,.3.253c.922.861,1.145,2.228,2.026,3.211.686.772,1.729,1.266,2.145,2.208.317.722.271,1.7.932,2.112.187.119.41.17.6.286a2,2,0,0,1,.555.6,6.734,6.734,0,0,1,1.5,3.292c.033.484-.013,1.043.342,1.37.1.094.23.162.284.289.111.253-.182.522-.233.8-.073.39.311.686.549,1.013a1.593,1.593,0,0,1,0,1.876c-2.076,2.7-2.451,6.33-4.267,9.215-.628,1-1.327,1.937-1.935,2.945-1.869,3.094-2.813,6.65-3.73,10.152a5.609,5.609,0,0,0,1.557,1.737,8.609,8.609,0,0,1-1.735,3.2,8.061,8.061,0,0,0-.572.717,1.393,1.393,0,0,0-.565-.425,20.062,20.062,0,0,0-.506,4.431,3.162,3.162,0,0,0,.932,2.671,3.3,3.3,0,0,0,1.036.428l1.737.506a1.816,1.816,0,0,0,.96.094c.205-.058.387-.185.6-.225a1.466,1.466,0,0,1,.674.089l1.5.438a9.923,9.923,0,0,1,1.484.524c.428.205.823.471,1.243.7a15.023,15.023,0,0,0,2.17.891l2.588.891a9.417,9.417,0,0,0,2.244.582c.532.046,1.071,0,1.6.091.4.068.788.213,1.19.253a3.12,3.12,0,0,0,1.874-.557,1.674,1.674,0,0,0,.542-.489,1.935,1.935,0,0,0-.317-1.973,7.8,7.8,0,0,0-2.677-2.785c-.458-.253-.955-.441-1.428-.674-1.347-.658-2.363-1.757-3.636-2.509a.863.863,0,0,0-1.091.073,7.37,7.37,0,0,1-2.785-2.474,5.57,5.57,0,0,1-.506-1.709c.6.142,1.2.253,1.8.352A46.32,46.32,0,0,1,122.657,183.659Zm-24.327-108c-.051.286-.106.57-.167.853-.506,2.378-1.231,5.042-2.887,6.812a6.331,6.331,0,0,1-1.869,1.233l-.185.091A40.622,40.622,0,0,1,98.33,75.664Z" transform="translate(-24.113 -18.953)" fill="url(#linear-gradient)"/>
  <path id="Path_383" data-name="Path 383" d="M100.781,61.56a7.558,7.558,0,0,1,.818-2.573,5.877,5.877,0,0,1,1.2-1.266,7.986,7.986,0,0,1,2.568-1.605,3.207,3.207,0,0,1,2.909.337,3.873,3.873,0,0,1,1.279,2.677,6.59,6.59,0,0,1-.686,4.051c-.785,1.37-2.147,2.279-3.292,3.378a13.071,13.071,0,0,0-2.145,2.674,7.62,7.62,0,0,1-.977,1.428,1.856,1.856,0,0,1-1.552.62,2.738,2.738,0,0,1-1.266-.742c-.468-.41-1.729-1.142-1.773-1.793-.03-.527.955-1.722,1.2-2.216a24.947,24.947,0,0,0,1.724-4.971Z" transform="translate(-24.113 -18.953)" fill="#fbbebe"/>
  <path id="Path_384" data-name="Path 384" d="M100.781,61.56a7.558,7.558,0,0,1,.818-2.573,5.877,5.877,0,0,1,1.2-1.266,7.986,7.986,0,0,1,2.568-1.605,3.207,3.207,0,0,1,2.909.337,3.873,3.873,0,0,1,1.279,2.677,6.59,6.59,0,0,1-.686,4.051c-.785,1.37-2.147,2.279-3.292,3.378a13.071,13.071,0,0,0-2.145,2.674,7.62,7.62,0,0,1-.977,1.428,1.856,1.856,0,0,1-1.552.62,2.738,2.738,0,0,1-1.266-.742c-.468-.41-1.729-1.142-1.773-1.793-.03-.527.955-1.722,1.2-2.216a24.947,24.947,0,0,0,1.724-4.971Z" transform="translate(-24.113 -18.953)" opacity="0.1"/>
  <path id="Path_385" data-name="Path 385" d="M74.193,86.869a22.716,22.716,0,0,1,6.222-.76c3.5.051,7.108.9,10.443-.175a18.114,18.114,0,0,0,2.5-1.086,6.356,6.356,0,0,0,1.869-1.226c1.659-1.757,2.373-4.4,2.892-6.766a45.147,45.147,0,0,0,.787-7.2,5.5,5.5,0,0,0,2.73.719,1.98,1.98,0,0,0,1.907-1.773,28.976,28.976,0,0,0,.124,6.708c.147.876.375,1.74.453,2.626.284,3.2-1.4,6.4-.8,9.556a2.317,2.317,0,0,1-1.089,2.469,11.9,11.9,0,0,1-2.821.76c-1.856.474-3.477,1.654-5.34,2.094-.869.205-1.773.253-2.628.474-1.231.324-2.347,1.028-3.6,1.251-.939.167-1.907.053-2.856.134-.825.068-1.636.286-2.464.306a7.109,7.109,0,0,1-5.29-2.618A22.23,22.23,0,0,1,74.193,86.869Z" transform="translate(-24.113 -18.953)" fill="#2b1c81"/>
  <path id="Path_386" data-name="Path 386" d="M74.193,86.869a22.716,22.716,0,0,1,6.222-.76c3.5.051,7.108.9,10.443-.175a18.114,18.114,0,0,0,2.5-1.086,6.356,6.356,0,0,0,1.869-1.226c1.659-1.757,2.373-4.4,2.892-6.766a45.147,45.147,0,0,0,.787-7.2,5.5,5.5,0,0,0,2.73.719,1.98,1.98,0,0,0,1.907-1.773,28.976,28.976,0,0,0,.124,6.708c.147.876.375,1.74.453,2.626.284,3.2-1.4,6.4-.8,9.556a2.317,2.317,0,0,1-1.089,2.469,11.9,11.9,0,0,1-2.821.76c-1.856.474-3.477,1.654-5.34,2.094-.869.205-1.773.253-2.628.474-1.231.324-2.347,1.028-3.6,1.251-.939.167-1.907.053-2.856.134-.825.068-1.636.286-2.464.306a7.109,7.109,0,0,1-5.29-2.618A22.23,22.23,0,0,1,74.193,86.869Z" transform="translate(-24.113 -18.953)" opacity="0.1"/>
  <path id="Path_387" data-name="Path 387" d="M165.258,89.981a17.432,17.432,0,1,1-17.432,17.431,17.432,17.432,0,0,1,17.432-17.431m0-4.3a21.736,21.736,0,1,0,21.736,21.735A21.736,21.736,0,0,0,165.258,85.676Z" transform="translate(-24.113 -18.953)" fill="#3f3d56"/>
  <rect id="Rectangle_301" data-name="Rectangle 301" width="5.095" height="5.363" transform="translate(137.927 61.638)" fill="#3f3d56"/>
  <rect id="Rectangle_302" data-name="Rectangle 302" width="5.095" height="5.363" transform="translate(152.109 63.814) rotate(31)" fill="#3f3d56"/>
  <rect id="Rectangle_303" data-name="Rectangle 303" width="5.095" height="5.363" transform="translate(162.962 72.596) rotate(61)" fill="#3f3d56"/>
  <rect id="Rectangle_304" data-name="Rectangle 304" width="5.095" height="5.363" transform="translate(165.594 99.851) rotate(122)" fill="#3f3d56"/>
  <rect id="Rectangle_305" data-name="Rectangle 305" width="5.095" height="5.363" transform="translate(124.021 75.195) rotate(119)" fill="#3f3d56"/>
  <rect id="Rectangle_306" data-name="Rectangle 306" width="5.095" height="5.363" transform="translate(121.246 97.007) rotate(58)" fill="#3f3d56"/>
  <rect id="Rectangle_307" data-name="Rectangle 307" width="5.095" height="5.363" transform="translate(132.942 68.411) rotate(149)" fill="#3f3d56"/>
  <rect id="Rectangle_308" data-name="Rectangle 308" width="5.095" height="5.363" transform="translate(137.927 109.912)" fill="#3f3d56"/>
  <rect id="Rectangle_309" data-name="Rectangle 309" width="5.095" height="5.363" transform="translate(149.348 108.504) rotate(-31)" fill="#3f3d56"/>
  <rect id="Rectangle_310" data-name="Rectangle 310" width="5.095" height="5.363" transform="translate(130.181 113.101) rotate(-149)" fill="#3f3d56"/>
  <rect id="Rectangle_311" data-name="Rectangle 311" width="6.168" height="4.558" transform="translate(113.792 86.312)" fill="#3f3d56"/>
  <rect id="Rectangle_312" data-name="Rectangle 312" width="6.168" height="4.558" transform="translate(168.498 90.87) rotate(180)" fill="#3f3d56"/>
  <path id="Path_388" data-name="Path 388" d="M205.753,58.6a17.432,17.432,0,1,1-17.432,17.431A17.432,17.432,0,0,1,205.753,58.6m0-4.3a21.736,21.736,0,1,0,21.736,21.735A21.736,21.736,0,0,0,205.753,54.3Z" transform="translate(-24.113 -18.953)" fill="#3f3d56"/>
  <rect id="Rectangle_313" data-name="Rectangle 313" width="5.095" height="5.363" transform="translate(178.421 30.265)" fill="#3f3d56"/>
  <rect id="Rectangle_314" data-name="Rectangle 314" width="5.095" height="5.363" transform="translate(192.606 32.436) rotate(31)" fill="#3f3d56"/>
  <rect id="Rectangle_315" data-name="Rectangle 315" width="5.095" height="5.363" transform="translate(203.458 41.219) rotate(61)" fill="#3f3d56"/>
  <rect id="Rectangle_316" data-name="Rectangle 316" width="5.095" height="5.363" transform="translate(206.088 68.475) rotate(122)" fill="#3f3d56"/>
  <rect id="Rectangle_317" data-name="Rectangle 317" width="5.095" height="5.363" transform="translate(164.514 43.821) rotate(119)" fill="#3f3d56"/>
  <rect id="Rectangle_318" data-name="Rectangle 318" width="5.095" height="5.363" transform="translate(161.74 65.633) rotate(58)" fill="#3f3d56"/>
  <rect id="Rectangle_319" data-name="Rectangle 319" width="5.095" height="5.363" transform="translate(173.437 37.034) rotate(149)" fill="#3f3d56"/>
  <rect id="Rectangle_320" data-name="Rectangle 320" width="5.095" height="5.363" transform="translate(178.421 78.536)" fill="#3f3d56"/>
  <rect id="Rectangle_321" data-name="Rectangle 321" width="5.095" height="5.363" transform="translate(189.843 77.128) rotate(-31)" fill="#3f3d56"/>
  <rect id="Rectangle_322" data-name="Rectangle 322" width="5.095" height="5.363" transform="translate(170.674 81.724) rotate(-149)" fill="#3f3d56"/>
  <rect id="Rectangle_323" data-name="Rectangle 323" width="6.168" height="4.558" transform="translate(154.285 54.936)" fill="#3f3d56"/>
  <rect id="Rectangle_324" data-name="Rectangle 324" width="6.168" height="4.558" transform="translate(208.995 59.494) rotate(180)" fill="#3f3d56"/>
  <path id="Path_389" data-name="Path 389" d="M124.753,57.263h.615a17.43,17.43,0,1,1-.593,34.856c-.205,0-.41,0-.618,0a17.43,17.43,0,1,1,.6-34.856m0-4.3h0a21.735,21.735,0,1,0-.745,43.463c.253,0,.507.01.76.01a21.735,21.735,0,1,0,.742-43.463c-.253,0-.506-.01-.76-.01Z" transform="translate(-24.113 -18.953)" fill="#3f3d56"/>
  <rect id="Rectangle_325" data-name="Rectangle 325" width="5.095" height="5.363" transform="translate(98.362 28.832) rotate(1.99)" fill="#3f3d56"/>
  <rect id="Rectangle_326" data-name="Rectangle 326" width="5.095" height="5.363" transform="translate(112.459 31.494) rotate(32.99)" fill="#3f3d56"/>
  <rect id="Rectangle_327" data-name="Rectangle 327" width="5.095" height="5.363" transform="translate(123.002 40.648) rotate(62.99)" fill="#3f3d56"/>
  <rect id="Rectangle_328" data-name="Rectangle 328" width="5.095" height="5.363" transform="matrix(-0.559, 0.829, -0.829, -0.559, 124.689, 67.97)" fill="#3f3d56"/>
  <rect id="Rectangle_329" data-name="Rectangle 329" width="5.095" height="5.363" transform="translate(83.993 41.891) rotate(120.99)" fill="#3f3d56"/>
  <rect id="Rectangle_330" data-name="Rectangle 330" width="5.112" height="5.382" transform="translate(80.108 63.992) rotate(60.113)" fill="#3f3d56"/>
  <rect id="Rectangle_331" data-name="Rectangle 331" width="5.095" height="5.363" transform="translate(93.151 35.416) rotate(150.99)" fill="#3f3d56"/>
  <rect id="Rectangle_332" data-name="Rectangle 332" width="5.095" height="5.363" transform="translate(96.688 77.072) rotate(1.99)" fill="#3f3d56"/>
  <rect id="Rectangle_333" data-name="Rectangle 333" width="5.095" height="5.363" transform="translate(108.154 76.065) rotate(-29.01)" fill="#3f3d56"/>
  <rect id="Rectangle_334" data-name="Rectangle 334" width="5.095" height="5.363" transform="translate(88.841 79.987) rotate(-147.01)" fill="#3f3d56"/>
  <rect id="Rectangle_335" data-name="Rectangle 335" width="6.168" height="4.558" transform="translate(73.387 52.65) rotate(1.99)" fill="#3f3d56"/>
  <rect id="Rectangle_336" data-name="Rectangle 336" width="6.168" height="4.558" transform="translate(127.907 59.096) rotate(-178.01)" fill="#3f3d56"/>
  <path id="Path_390" data-name="Path 390" d="M68.622,185.84a5.231,5.231,0,0,0-1.8.56,4.218,4.218,0,0,0-1.562,2.107,18.242,18.242,0,0,0-1.048,6.584,14.156,14.156,0,0,0,.676,5.33,3.368,3.368,0,0,0,.894,1.4,3.181,3.181,0,0,0,1.223.593,3.338,3.338,0,0,0,2.866-.355,4.574,4.574,0,0,0,1.281-2.991,6.983,6.983,0,0,1,1.7-4.069c.815-.76,1.983-1.139,2.575-2.081.706-1.119.334-2.58-.116-3.826-.392-1.079-.967-3.269-2.1-3.821S69.8,185.627,68.622,185.84Z" transform="translate(-24.113 -18.953)" fill="#fbbebe"/>
  <path id="Path_391" data-name="Path 391" d="M110.269,191.145a8.47,8.47,0,0,1-1.773,3.269c-.506.577-1.127,1.279-.861,2a1.785,1.785,0,0,0,.471.631c3.712,3.634,8.906,5.4,14.059,6.044a.484.484,0,0,0,.253,0c.152-.068.187-.253.208-.423a5.351,5.351,0,0,0,0-1.621,4.849,4.849,0,0,0-2.433-2.839,7.6,7.6,0,0,1-2.861-2.5c-.76-1.408-.433-3.241-1.327-4.558a4.831,4.831,0,0,0-3.345-1.729c-.443-.068-1.385-.555-1.773-.329S110.4,190.7,110.269,191.145Z" transform="translate(-24.113 -18.953)" fill="#fbbebe"/>
  <path id="Path_392" data-name="Path 392" d="M68.116,185.708a.506.506,0,0,0-.448-.506,1.621,1.621,0,0,0-.732.094,10.7,10.7,0,0,1-1.773.324,12.738,12.738,0,0,0-2.13.253,2.406,2.406,0,0,0-1.648,1.266,3.138,3.138,0,0,0-.182,1.188,18.141,18.141,0,0,0,.552,4.611.4.4,0,0,0,.187.3c.089.035.195,0,.284.04a.375.375,0,0,1,.165.205,10.176,10.176,0,0,1,.641,3.079q.253,2.327.641,4.639a5.083,5.083,0,0,0,.932,2.532,4.164,4.164,0,0,0,2.666,1.221,18.784,18.784,0,0,0,6.27-.572A1.828,1.828,0,0,0,74.6,203.9a1.18,1.18,0,0,0,.253-.838c-.048-1.033-1-1.773-1.859-2.34l-1.185-.8a.615.615,0,0,1-.208-.187.668.668,0,0,1-.058-.38l.076-1.519a4.35,4.35,0,0,0-3.8,2.357c-.165.327-.319.709-.661.836a.873.873,0,0,1-1.036-.625,2.725,2.725,0,0,1,.038-1.337c.694-3.717.532-7.538.955-11.3a2.573,2.573,0,0,1,.377-1.19C67.7,186.3,68.078,186.055,68.116,185.708Z" transform="translate(-24.113 -18.953)" fill="#3f3d56"/>
  <path id="Path_393" data-name="Path 393" d="M119.833,200.121c.175.289.446.506.608.805a.682.682,0,0,1-.132.9.891.891,0,0,1-.547.056,18.51,18.51,0,0,1-10.01-4.528,7.016,7.016,0,0,1-1.226-1.345c-.327-.506-.6-1.1-1.16-1.309a19.794,19.794,0,0,0-.506,4.4,3.132,3.132,0,0,0,.932,2.654,3.335,3.335,0,0,0,1.038.423l1.74.491a1.851,1.851,0,0,0,.962.094c.205-.056.387-.185.6-.223a1.479,1.479,0,0,1,.676.086l1.5.438a9.934,9.934,0,0,1,1.486.506c.428.2.825.468,1.243.694a14.88,14.88,0,0,0,2.175.884l2.644.917a9.326,9.326,0,0,0,2.249.577c.532.046,1.071,0,1.6.091.4.068.788.213,1.193.253a3.153,3.153,0,0,0,1.874-.555,1.694,1.694,0,0,0,.544-.484,1.913,1.913,0,0,0-.319-1.962,7.706,7.706,0,0,0-2.679-2.758c-.461-.253-.957-.441-1.431-.671-1.347-.653-2.368-1.745-3.641-2.492C120.041,197.371,119.266,199.192,119.833,200.121Z" transform="translate(-24.113 -18.953)" fill="#3f3d56"/>
  <path id="Path_394" data-name="Path 394" d="M82.7,93.691a10.952,10.952,0,0,1-4.674,1.818,18.853,18.853,0,0,1-2.646.142,67.3,67.3,0,0,1-11-.919,13.485,13.485,0,0,0,3.459-5.383A8.842,8.842,0,0,0,68,85.975a25.246,25.246,0,0,0-1.028-4.246,29.423,29.423,0,0,0,4.652-.119c.881-.089,3.039-.891,3.8-.284.712.565.175,2.563.162,3.484v.1a11.212,11.212,0,0,0,.889,4.067A7.738,7.738,0,0,0,82.7,93.691Z" transform="translate(-24.113 -18.953)" fill="#fbbebe"/>
  <path id="Path_395" data-name="Path 395" d="M75.6,84.8A9.288,9.288,0,0,1,68,85.963a25.245,25.245,0,0,0-1.028-4.246,29.424,29.424,0,0,0,4.652-.119c.881-.089,3.039-.891,3.8-.284C76.145,81.878,75.609,83.876,75.6,84.8Z" transform="translate(-24.113 -18.953)" opacity="0.1"/>
  <circle id="Ellipse_131" data-name="Ellipse 131" cx="9.268" cy="9.268" r="9.268" transform="translate(37.141 48.388)" fill="#fbbebe"/>
  <path id="Path_396" data-name="Path 396" d="M109.844,123.5a4.3,4.3,0,0,1-2.089,3.72,8.255,8.255,0,0,1-2.279.8,44.976,44.976,0,0,1-12.934,1.6,7.125,7.125,0,0,1-2.745-.577,2.932,2.932,0,0,1-1.694-2.117,2.006,2.006,0,0,0-.134-.674,1.9,1.9,0,0,0-.643-.572,2.636,2.636,0,0,1-.977-2.616c-.529.235-1.081-.3-1.329-.82s-.443-1.157-.975-1.378a7.929,7.929,0,0,0-1.162-.162c-.61-.157-.982-.76-1.413-1.21a10.989,10.989,0,0,0-3.274-2c-3.411-1.719-6.191-4.444-8.913-7.123a29.612,29.612,0,0,1-3.836-4.3c-.306-.448-.582-.909-.843-1.383a38.876,38.876,0,0,1-2.137-4.89,5.623,5.623,0,0,1-.552-2.785c.013-.086.03-.172.051-.253a5.33,5.33,0,0,1,.841-1.7,7.093,7.093,0,0,1,3.8-3.122c1.621-.425,3.239.089,4.885.438a12.448,12.448,0,0,0,1.659.253,15.464,15.464,0,0,0,5.158-.81l1.838-.506c.922-.253,1.383-1.367,2.314-1.562a3.249,3.249,0,0,1,1.248.063,17.221,17.221,0,0,1,5.462,1.785,9,9,0,0,1,1.061.722,6.713,6.713,0,0,1,2.466,3.644c.38,1.6.023,3.315.408,4.918a10.9,10.9,0,0,0,1.889,3.6l4.525,6.462a40.152,40.152,0,0,0,3.33,4.34C105.271,117.914,109.783,119.912,109.844,123.5Z" transform="translate(-24.113 -18.953)" fill="#2b1c81"/>
  <path id="Path_397" data-name="Path 397" d="M97.76,61.56a7.554,7.554,0,0,1,.815-2.573,5.877,5.877,0,0,1,1.2-1.266,8.013,8.013,0,0,1,2.568-1.605,3.207,3.207,0,0,1,2.909.337,3.873,3.873,0,0,1,1.279,2.677,6.59,6.59,0,0,1-.686,4.051c-.785,1.37-2.147,2.279-3.292,3.378a13.168,13.168,0,0,0-2.145,2.674,7.62,7.62,0,0,1-.977,1.428,1.856,1.856,0,0,1-1.552.62,2.751,2.751,0,0,1-1.266-.742c-.468-.41-1.732-1.142-1.773-1.793-.03-.527.955-1.722,1.2-2.216A25.116,25.116,0,0,0,97.76,61.56Z" transform="translate(-24.113 -18.953)" fill="#fbbebe"/>
  <path id="Path_398" data-name="Path 398" d="M130.332,168.914c-1.165,2.15-2.441,4.244-3.479,6.457-.605,1.294-1.129,2.626-1.8,3.884-.734,1.372-1.638,2.649-2.406,4.006a45.992,45.992,0,0,0-4,11.081,22.073,22.073,0,0,1-7.89-2.785c-.165-.1-.322-.2-.474-.306a5.632,5.632,0,0,1-1.593-1.755c.919-3.477,1.864-7.012,3.735-10.083.61-1.013,1.309-1.937,1.937-2.925,1.821-2.861,2.2-6.472,4.274-9.151a1.573,1.573,0,0,0,0-1.864c-.241-.311-.623-.608-.552-.993.053-.281.347-.534.233-.8-.053-.127-.182-.195-.284-.286-.355-.327-.309-.884-.339-1.362a6.587,6.587,0,0,0-1.519-3.269,2.026,2.026,0,0,0-.555-.6c-.187-.114-.41-.165-.6-.281-.663-.415-.615-1.383-.934-2.1-.415-.944-1.461-1.426-2.147-2.193-.874-.975-1.1-2.335-2.026-3.188a2.533,2.533,0,0,0-.3-.253,15.613,15.613,0,0,1,.539,4.464c.089,5.163-1.2,10.509-.6,15.639.476,4.069-2.026,8.131-5.583,10.164a26.879,26.879,0,0,1-4.345,1.831c-2.226.788-4.444,1.6-6.627,2.512q-2.314.957-4.558,2.064a57.593,57.593,0,0,0-5.391,2.983,20.838,20.838,0,0,0-5.806,4.781,5.223,5.223,0,0,1-3.75-2.064,14.312,14.312,0,0,1-2.054-3.889,10.8,10.8,0,0,1-.975-3.662.724.724,0,0,1,.441-.633l10.172-5.391,1.9-1.013c4.165-2.211,8.48-4.254,12.646-6.462.281.084.506-.235.59-.506s.142-.62.405-.742c.132-.063.3-.061.4-.172a.481.481,0,0,0,.071-.337c-.134-2.026-1.588-3.867-1.3-5.865a7.11,7.11,0,0,0,.372-2.532,11.051,11.051,0,0,0-.775-1.6c-.506-1.228,0-2.707-.547-3.91a9.04,9.04,0,0,1-.734-2.492,16.923,16.923,0,0,0-1.555-4.938,9,9,0,0,0-1.431-2.165c-.306-.329-.651-.623-.942-.965a8.018,8.018,0,0,1-1.461-3.8,18.312,18.312,0,0,1-.2-7.414,10.524,10.524,0,0,0,.474-2.5c-.013-1.122-.506-2.431.273-3.241a2.517,2.517,0,0,1,1.139-.585,34.386,34.386,0,0,1,5.515-1.013l8.5-1.112a7.716,7.716,0,0,0,2.826-.737,5.683,5.683,0,0,0,2.385-3.039c1.491,1.089,2.049,3.117,3.239,4.522.58.686,1.3,1.241,1.932,1.871a21.682,21.682,0,0,1,2.13,2.626,46.225,46.225,0,0,1,4.811,7.614c.661,1.418,1.172,2.9,1.7,4.368,2.074,5.791,5.454,11.288,6.857,17.275.344,1.464,1.238,2.785,1.378,4.282A8.179,8.179,0,0,1,130.332,168.914Z" transform="translate(-24.113 -18.953)" fill="#3f3d56"/>
  <path id="Path_399" data-name="Path 399" d="M85.841,120.818a2.608,2.608,0,0,0-.314,1.253c.19-.937,1.479-1.456,1.562-2.383.038-.428-.041-.408-.3-.182C86.385,119.853,86.211,120.451,85.841,120.818Z" transform="translate(-24.113 -18.953)" opacity="0.1"/>
  <path id="Path_400" data-name="Path 400" d="M89.769,123.664a1.932,1.932,0,0,0-.587.869,2.2,2.2,0,0,0-.119,1.519c.19-.089.253-.322.311-.524a3.657,3.657,0,0,1,.4-.9c.152-.253.853-.818.851-1.084C90.619,123.14,89.956,123.52,89.769,123.664Z" transform="translate(-24.113 -18.953)" opacity="0.1"/>
  <path id="Path_401" data-name="Path 401" d="M90.222,92.3a9.556,9.556,0,0,1-1.955,1.3c-1.836.929-3.869,1.421-5.718,2.322A28.311,28.311,0,0,0,79.9,97.466L74.4,100.948a5.892,5.892,0,0,0-1.21.919c-.661.7-.658,1.942-1.266,2.7a3.709,3.709,0,0,1-2.666,1.231,8.663,8.663,0,0,1-2.97-.506,15.42,15.42,0,0,1-1.7-.618,8,8,0,0,1-1.631-.932,4.653,4.653,0,0,1-1.919-3.039,6,6,0,0,1,.327-2.476,9.5,9.5,0,0,1,.585-1.5,6.041,6.041,0,0,1,.466-.79c1.266-1.788,3.487-2.626,5.637-3.039,1.129-.22,2.279-.354,3.421-.547a12.447,12.447,0,0,0,1.659.253,15.464,15.464,0,0,0,5.158-.81l1.838-.506c.922-.253,1.383-1.367,2.314-1.562a3.249,3.249,0,0,1,1.248.063,17.221,17.221,0,0,1,5.462,1.785,9,9,0,0,1,1.066.727Z" transform="translate(-24.113 -18.953)" opacity="0.1"/>
  <path id="Path_402" data-name="Path 402" d="M94.7,67.7c-.235,2.241-2.127,3.887-3.292,5.824-.56.939-.952,1.97-1.456,2.942a29.164,29.164,0,0,1-1.924,3.064l-2.059,2.988a30.915,30.915,0,0,1-3.981,5c-2.7.458-4.958,2.461-7.516,3.434a38.513,38.513,0,0,1-6.424,1.3c-2.147.418-4.373,1.266-5.634,3.039a7.954,7.954,0,0,0-1.053,2.279,5.905,5.905,0,0,0-.324,2.474,4.7,4.7,0,0,0,1.917,3.039,10.606,10.606,0,0,0,3.327,1.55,8.723,8.723,0,0,0,2.97.506,3.614,3.614,0,0,0,2.669-1.231c.628-.79.6-1.993,1.266-2.7a5.911,5.911,0,0,1,1.213-.919L79.9,96.811a28.315,28.315,0,0,1,2.651-1.537c1.848-.9,3.882-1.393,5.718-2.322s3.545-2.464,3.912-4.49c1.119-6.224,5.426-11.471,9.116-16.611-.122-.025-.084-.3-.129-.418a5.306,5.306,0,0,0-2.7-2.72A15.97,15.97,0,0,0,94.7,67.7Z" transform="translate(-24.113 -18.953)" fill="#2b1c81"/>
  <path id="Path_403" data-name="Path 403" d="M75.277,67.744a3.434,3.434,0,0,0-.382-1.955,4.377,4.377,0,0,0-3.039-1.608q-1.669-.342-3.353-.587a7.569,7.569,0,0,0-2.773-.046,18.755,18.755,0,0,0-3.469,1.636,23.689,23.689,0,0,1-4.4,1.122,6.7,6.7,0,0,0-3.92,2.122,7.34,7.34,0,0,0-1.2,3.211c-1.755,9.468.134,19.179.494,28.8.139,3.745-.03,7.748-2.17,10.825L57.3,111.1c1.6-.041,3.31-.124,4.558-1.109a7.566,7.566,0,0,0,2.1-3.583,11.087,11.087,0,0,0,.8-3.206c.1-2.261-1.185-4.482-.76-6.708A7.476,7.476,0,0,1,66.809,92.4a24.536,24.536,0,0,0,3.778-3.363c1.869-2.363,2.226-5.591,1.993-8.592a32.762,32.762,0,0,1-.3-5.356,6.752,6.752,0,0,1,1.413-3.753A5.235,5.235,0,0,0,75.277,67.744Z" transform="translate(-24.113 -18.953)" fill="#3f3d56"/>
  <path id="Path_404" data-name="Path 404" d="M74.894,65.789a4.3,4.3,0,0,0-2.988-1.6,2.945,2.945,0,0,1,1.479,1.165,3.413,3.413,0,0,1,.382,1.955,5.211,5.211,0,0,1-1.6,3.593,6.745,6.745,0,0,0-1.413,3.753,32.761,32.761,0,0,0,.3,5.356c.233,3-.124,6.229-1.99,8.592a24.91,24.91,0,0,1-3.778,3.363,7.467,7.467,0,0,0-2.816,4.095c-.418,2.226.866,4.447.76,6.708a11.091,11.091,0,0,1-.8,3.206,7.538,7.538,0,0,1-2.1,3.581c-1.266.985-2.97,1.071-4.558,1.112l-4.414.116c-.1.162-.2.324-.309.479l6.232-.165c1.6-.041,3.31-.124,4.558-1.109a7.566,7.566,0,0,0,2.1-3.583,11.087,11.087,0,0,0,.8-3.206c.1-2.261-1.185-4.482-.76-6.708A7.476,7.476,0,0,1,66.8,92.4a24.536,24.536,0,0,0,3.778-3.363c1.869-2.363,2.226-5.591,1.993-8.592a32.762,32.762,0,0,1-.3-5.356,6.752,6.752,0,0,1,1.413-3.753,5.169,5.169,0,0,0,1.6-3.593A3.434,3.434,0,0,0,74.894,65.789Z" transform="translate(-24.113 -18.953)" opacity="0.1"/>
  <path id="Path_405" data-name="Path 405" d="M121.715,163.372l-11.438,27.892a5.632,5.632,0,0,1-1.593-1.755c.919-3.477,1.864-7.012,3.735-10.083.61-1.013,1.309-1.937,1.937-2.925,1.821-2.861,2.2-6.472,4.274-9.151a1.572,1.572,0,0,0,0-1.864c-.241-.311-.623-.608-.552-.993.053-.281.347-.534.233-.8-.053-.127-.182-.195-.284-.286-.355-.327-.309-.884-.339-1.362a6.587,6.587,0,0,0-1.519-3.269,2.026,2.026,0,0,0-.555-.6c-.187-.114-.41-.165-.6-.281-.663-.415-.615-1.383-.934-2.1-.415-.945-1.461-1.426-2.147-2.193-.874-.975-1.1-2.335-2.026-3.188l-.078-.2.891-5.381Z" transform="translate(-24.113 -18.953)" opacity="0.1"/>
</svg>
